<?xml version="1.0" encoding="UTF-8"?>
<svg id="Camada_2" data-name="Camada 2" xmlns="http://www.w3.org/2000/svg" viewBox="0 0 31.9 32">
  <g id="Camada_1-2" data-name="Camada 1">
    <g id="Layer_1">
      <g id="_559641736" data-name=" 559641736">
        <path id="_559642768" data-name=" 559642768" d="M15.95,10.19c-3.12,0-5.65,2.61-5.65,5.81,0,3.2,2.54,5.81,5.65,5.81,3.12,0,5.65-2.61,5.65-5.81,0-3.2-2.54-5.81-5.65-5.81h0ZM15.95,22.54c-3.52,0-6.39-2.93-6.39-6.54,0-3.61,2.87-6.54,6.39-6.54,3.52,0,6.39,2.93,6.39,6.54,0,3.61-2.87,6.54-6.39,6.54Z" style="fill: #0a1c33; fill-rule: evenodd; stroke-width: 0px;"/>
        <path id="_559642432" data-name=" 559642432" d="M26.62,17.54h0,0ZM14.74,26.4h2.42l.3-2.04c.02-.15.13-.27.28-.3.91-.2,1.78-.57,2.6-1.09.13-.08.29-.08.42.02l1.63,1.23,1.71-1.73-1.22-1.65c-.09-.12-.1-.29-.02-.41.51-.81.88-1.69,1.07-2.61.03-.15.15-.26.31-.29l2.01-.29v-2.45l-2.01-.3c-.15-.02-.27-.13-.3-.28-.2-.92-.56-1.8-1.07-2.62-.08-.13-.07-.29.02-.41l1.22-1.65-1.71-1.73-1.63,1.23c-.12.09-.29.1-.42.02-.81-.52-1.69-.88-2.59-1.09-.15-.03-.26-.15-.28-.3l-.3-2.03h-2.42l-.3,2.04c-.02.15-.13.27-.28.3-.91.2-1.79.57-2.6,1.09-.13.08-.3.08-.42-.02l-1.63-1.23-1.71,1.73,1.22,1.65c.09.12.1.29.01.41-.51.81-.87,1.69-1.07,2.61-.03.15-.15.26-.31.29l-2.01.3v2.45l2.01.3c.15.02.27.13.3.28.2.92.56,1.8,1.07,2.62.08.13.07.29-.02.41l-1.22,1.65,1.71,1.73,1.64-1.23c.12-.09.29-.1.42-.02.81.52,1.69.88,2.59,1.09.15.03.26.15.28.3l.3,2.02ZM17.48,27.13h-3.05c-.18,0-.34-.13-.36-.31l-.31-2.09c-.82-.21-1.62-.54-2.37-.99l-1.69,1.27c-.15.11-.35.09-.48-.04l-2.16-2.18c-.13-.13-.14-.33-.04-.48l1.26-1.71c-.44-.75-.77-1.55-.98-2.39l-2.08-.31c-.18-.03-.31-.18-.31-.36v-3.08c0-.18.13-.34.31-.36l2.08-.31c.2-.83.53-1.64.98-2.39l-1.26-1.71c-.11-.15-.09-.35.03-.48l2.16-2.18c.13-.13.33-.15.48-.04l1.69,1.27c.75-.45,1.54-.78,2.37-.99l.31-2.1c.03-.18.18-.31.36-.31h3.05c.18,0,.34.13.36.31l.31,2.1c.82.21,1.62.54,2.37.99l1.69-1.27c.15-.11.35-.09.48.04l2.16,2.18c.13.13.14.33.03.48l-1.26,1.71c.44.75.77,1.55.98,2.39l2.08.31c.18.03.31.18.31.36v3.08c0,.18-.13.34-.31.36l-2.08.3c-.2.83-.53,1.64-.98,2.39l1.26,1.71c.11.15.09.35-.03.48l-2.16,2.18c-.13.13-.33.15-.48.04l-1.69-1.27c-.75.45-1.54.78-2.37.99l-.31,2.1c-.03.18-.18.31-.36.31h0Z" style="fill: #0a1c33; fill-rule: evenodd; stroke-width: 0px;"/>
        <path id="_559642168" data-name=" 559642168" d="M14.55,18.42c.07.07.19.07.27,0l4.05-4.09c.18-.18.18-.49,0-.68-.18-.18-.48-.18-.67,0l-3.26,3.29c-.07.07-.16.11-.26.11-.1,0-.19-.04-.26-.11l-.73-.73c-.09-.09-.21-.14-.33-.14s-.24.05-.33.14c-.18.18-.18.49,0,.67l1.52,1.53ZM14.68,19.21c-.25,0-.48-.1-.65-.27,0,0,0,0,0,0l-1.52-1.53c-.47-.47-.47-1.24,0-1.71.23-.23.53-.35.85-.35s.62.13.85.35l.47.47,3-3.02c.47-.47,1.23-.47,1.7,0,.47.47.47,1.24,0,1.71l-4.05,4.09c-.18.18-.41.27-.65.27h0Z" style="fill: #0a1c33; fill-rule: evenodd; stroke-width: 0px;"/>
        <path id="_559642144" data-name=" 559642144" d="M1.76,13.55s-.05,0-.07,0c-.2-.04-.33-.23-.29-.43.57-2.89,1.97-5.53,4.06-7.63,2.09-2.1,4.72-3.51,7.6-4.08.2-.04.39.09.43.29.04.2-.09.39-.29.43C7.57,3.24,3.22,7.6,2.11,13.25c-.03.17-.19.3-.36.3h0Z" style="fill: #0a1c33; fill-rule: evenodd; stroke-width: 0px;"/>
        <path id="_559642360" data-name=" 559642360" d="M30.14,13.54c-.17,0-.33-.12-.36-.3-1.11-5.64-5.46-10.01-11.09-11.13-.2-.04-.33-.23-.29-.43.04-.2.23-.33.43-.29,2.88.57,5.51,1.98,7.6,4.08,2.09,2.1,3.5,4.74,4.06,7.63.04.2-.09.39-.29.43-.02,0-.05,0-.07,0h0Z" style="fill: #0a1c33; fill-rule: evenodd; stroke-width: 0px;"/>
        <path id="_559641496" data-name=" 559641496" d="M13.14,30.6s-.05,0-.07,0c-2.88-.57-5.51-1.98-7.6-4.08-2.09-2.1-3.5-4.74-4.06-7.63-.04-.2.09-.39.29-.43.2-.04.39.09.43.29,1.11,5.64,5.46,10.01,11.09,11.13.2.04.33.23.29.43-.03.17-.19.3-.36.3h0Z" style="fill: #0a1c33; fill-rule: evenodd; stroke-width: 0px;"/>
        <path id="_559642024" data-name=" 559642024" d="M18.76,30.61c-.17,0-.32-.12-.36-.3-.04-.2.09-.39.29-.43,5.63-1.11,9.99-5.48,11.09-11.13.04-.2.23-.33.43-.29.2.04.33.23.29.43-.57,2.89-1.97,5.53-4.06,7.63-2.09,2.1-4.72,3.51-7.6,4.08-.02,0-.05,0-.07,0h0Z" style="fill: #0a1c33; fill-rule: evenodd; stroke-width: 0px;"/>
        <path id="_559641880" data-name=" 559641880" d="M15.95.73c-.41,0-.75.33-.75.75,0,.41.33.75.75.75.41,0,.75-.33.75-.75,0-.41-.33-.75-.75-.75ZM15.95,2.96c-.82,0-1.48-.66-1.48-1.48C14.47.66,15.13,0,15.95,0c.82,0,1.48.66,1.48,1.48,0,.82-.66,1.48-1.48,1.48Z" style="fill: #0a1c33; fill-rule: evenodd; stroke-width: 0px;"/>
        <path id="_559641832" data-name=" 559641832" d="M1.48,15.25c-.41,0-.75.33-.75.75,0,.41.33.75.75.75.41,0,.75-.33.75-.75,0-.41-.34-.75-.75-.75ZM1.48,17.48c-.82,0-1.48-.66-1.48-1.48,0-.82.66-1.48,1.48-1.48.82,0,1.48.66,1.48,1.48,0,.82-.66,1.48-1.48,1.48Z" style="fill: #0a1c33; fill-rule: evenodd; stroke-width: 0px;"/>
        <path id="_559641808" data-name=" 559641808" d="M15.95,29.77c-.41,0-.75.33-.75.75,0,.41.33.75.75.75.41,0,.75-.33.75-.75,0-.41-.33-.75-.75-.75ZM15.95,32c-.82,0-1.48-.66-1.48-1.48,0-.82.66-1.48,1.48-1.48.82,0,1.48.66,1.48,1.48,0,.82-.66,1.48-1.48,1.48Z" style="fill: #0a1c33; fill-rule: evenodd; stroke-width: 0px;"/>
        <path id="_559641424" data-name=" 559641424" d="M30.42,15.25c-.41,0-.75.33-.75.75s.33.75.75.75c.41,0,.75-.33.75-.75,0-.41-.33-.75-.75-.75h0ZM30.42,17.48c-.82,0-1.48-.66-1.48-1.48s.66-1.48,1.48-1.48c.82,0,1.48.66,1.48,1.48,0,.82-.66,1.48-1.48,1.48Z" style="fill: #0a1c33; fill-rule: evenodd; stroke-width: 0px;"/>
      </g>
    </g>
  </g>
</svg>