<?xml version="1.0" encoding="UTF-8"?>
<svg id="Camada_2" data-name="Camada 2" xmlns="http://www.w3.org/2000/svg" xmlns:xlink="http://www.w3.org/1999/xlink" viewBox="0 0 48 48">
  <defs>
    <clipPath id="clippath">
      <rect width="48" height="48" style="fill: none; stroke-width: 0px;"/>
    </clipPath>
  </defs>
  <g id="Camada_1-2" data-name="Camada 1">
    <g id="g1335">
      <g id="g1337">
        <g style="clip-path: url(#clippath);">
          <g id="g1339">
            <g id="g1345">
              <path id="path1347" d="M46.59,48H1.41c-.78,0-1.41-.63-1.41-1.41v-26.44c0-.42.19-.81.51-1.08L23.1.32c.52-.43,1.28-.43,1.8,0l22.59,18.75c.32.27.51.66.51,1.08v26.44c0,.78-.63,1.41-1.41,1.41" style="fill: #ffcd14; stroke-width: 0px;"/>
            </g>
            <g id="g1349">
              <path id="path1351" d="M47.49,19.07L24.9.32c-.26-.22-.58-.32-.9-.32v48h22.59c.78,0,1.41-.63,1.41-1.41v-26.44c0-.42-.19-.81-.51-1.08" style="fill: #ffb400; stroke-width: 0px;"/>
            </g>
            <g id="g1353">
              <path id="path1355" d="M39.94,35.62H8.06c-.78,0-1.41-.63-1.41-1.41V7.03c0-.78.63-1.41,1.41-1.41h31.88c.78,0,1.41.63,1.41,1.41v27.19c0,.78-.63,1.41-1.41,1.41" style="fill: #dcf5fa; stroke-width: 0px;"/>
            </g>
            <g id="g1357">
              <path id="path1359" d="M39.94,5.62h-15.94v30h15.94c.78,0,1.41-.63,1.41-1.41V7.03c0-.78-.63-1.41-1.41-1.41" style="fill: #bedce6; stroke-width: 0px;"/>
            </g>
            <g id="g1361">
              <path id="path1363" d="M23.6,22.75c-1.11,0-2.31-1.2-2.31-3.14s1.22-2.97,2.4-2.97,2.09,1.15,2.14,2.81v.32c-.07,1.66-1.04,2.99-2.23,2.99M32.59,17.14s0-.02,0-.03c-.69-2.3-2.25-4.19-4.38-5.31-2.13-1.12-4.56-1.34-6.85-.61-2.17.69-3.98,2.18-5.09,4.2-1.11,2.02-1.4,4.34-.82,6.55.5,1.91,1.59,3.56,3.14,4.76,1.49,1.16,3.35,1.83,5.23,1.88,0,0,.02,0,.03,0,.51,0,.92-.4.94-.91.01-.52-.39-.95-.91-.96-3.1-.09-5.82-2.24-6.61-5.25-.95-3.62,1.1-7.34,4.67-8.48,1.81-.58,3.73-.41,5.41.48,1.68.88,2.9,2.36,3.45,4.17.35,1.32.23,2.54-.38,4.09-.17.42-.69,1.41-1.9,1.41-.23,0-.4-.14-.49-.23-.2-.2-.32-.5-.32-.8v-2.35c.01-.06.02-.13.02-.19,0-.04,0-.08,0-.12l.02-4.33c0-.52-.42-.94-.93-.94h0c-.52,0-.93.42-.94.93v.32c-.61-.44-1.35-.69-2.16-.69-2.1,0-4.27,1.81-4.27,4.85,0,2.77,1.88,5.02,4.19,5.02.98,0,1.87-.4,2.56-1.08.14.26.31.49.51.7.5.5,1.15.78,1.82.78,1.93,0,3.15-1.34,3.65-2.6.77-1.93.91-3.56.45-5.28" style="fill: #0a1c33; stroke-width: 0px;"/>
            </g>
            <g id="g1365">
              <path id="path1367" d="M24.77,27.68c.01-.47-.32-.87-.77-.95v1.84c.43-.08.76-.44.77-.9" style="fill: #08192b; stroke-width: 0px;"/>
            </g>
            <g id="g1369">
              <path id="path1371" d="M32.58,17.12c-.69-2.3-2.25-4.19-4.38-5.31-1.32-.69-2.76-1.04-4.2-1.03v1.88c1.15-.01,2.29.26,3.33.81,1.68.88,2.9,2.36,3.45,4.17.35,1.32.23,2.54-.38,4.09-.17.42-.69,1.41-1.9,1.41-.23,0-.4-.14-.49-.23-.2-.2-.32-.5-.32-.8v-2.35c.01-.06.02-.13.02-.19,0-.04,0-.08,0-.12l.02-4.33c0-.52-.42-.94-.93-.94h0c-.52,0-.93.42-.94.93v.32c-.53-.38-1.16-.62-1.84-.68v1.89c1.06.18,1.78,1.27,1.82,2.78v.32c-.06,1.47-.83,2.68-1.82,2.94v1.9c.82-.09,1.56-.47,2.16-1.06.14.26.31.49.51.7.5.5,1.15.78,1.82.78,1.93,0,3.15-1.34,3.65-2.6.77-1.93.91-3.56.45-5.28,0,0,0-.02,0-.03" style="fill: #08192b; stroke-width: 0px;"/>
            </g>
            <g id="g1373">
              <path id="path1375" d="M46.59,48H1.41c-.78,0-1.41-.63-1.41-1.41v-26.44c0-.51.28-.98.72-1.23.45-.25.99-.23,1.43.04l21.85,13.6,21.85-13.6c.43-.27.98-.28,1.43-.04.45.25.72.72.72,1.23v26.44c0,.78-.63,1.41-1.41,1.41" style="fill: #fff037; stroke-width: 0px;"/>
            </g>
            <g id="g1377">
              <path id="path1379" d="M47.28,18.93c-.45-.25-.99-.23-1.43.04l-21.85,13.6v15.44h22.59c.78,0,1.41-.63,1.41-1.41v-26.44c0-.51-.28-.98-.72-1.23" style="fill: #ffcd14; stroke-width: 0px;"/>
            </g>
          </g>
        </g>
      </g>
    </g>
  </g>
</svg>