<?xml version="1.0" encoding="UTF-8"?>
<svg id="Camada_2" data-name="Camada 2" xmlns="http://www.w3.org/2000/svg" viewBox="0 0 48 48">
  <g id="Camada_1-2" data-name="Camada 1">
    <g>
      <path d="M33.94.94H14.06C6.82.94.94,6.82.94,14.07v19.87c0,7.25,5.88,13.13,13.12,13.13h19.88c7.25,0,13.12-5.88,13.12-13.13V14.07c0-7.25-5.87-13.13-13.12-13.13ZM42.94,33.94c0,4.97-4.03,9-9,9h-9c0,.25-.1.49-.28.66-.17.18-.41.28-.66.28s-.49-.1-.66-.28c-.18-.17-.28-.41-.28-.66h-9c-4.97,0-9-4.03-9-9V14.07c0-4.98,4.03-9,9-9h19.88c4.97,0,9,4.02,9,9v19.87Z" style="fill: #e68cbe; stroke-width: 0px;"/>
      <path d="M24,12c-2.31,0-4.47.65-6.3,1.79-.41.25-.81.53-1.19.84.33.38.3.95-.07,1.3l-.03.03c-.19.17-.42.26-.65.26s-.47-.09-.65-.28c-.38.42-.74.88-1.06,1.36-1.3,1.91-2.05,4.22-2.05,6.7,0,6.63,5.37,12,12,12s12-5.37,12-12-5.37-12-12-12ZM24,30.57c-3.62,0-6.56-2.95-6.56-6.57s2.94-6.56,6.56-6.56,6.56,2.94,6.56,6.56-2.94,6.57-6.56,6.57Z" style="fill: #ff5a5a; stroke-width: 0px;"/>
      <path d="M24,16.5c-4.14,0-7.5,3.36-7.5,7.5s3.36,7.5,7.5,7.5,7.5-3.36,7.5-7.5-3.36-7.5-7.5-7.5ZM24,30.57c-3.62,0-6.56-2.95-6.56-6.57s2.94-6.56,6.56-6.56,6.56,2.94,6.56,6.56-2.94,6.57-6.56,6.57Z" style="fill: #fff; stroke-width: 0px;"/>
      <circle cx="36.31" cy="11.7" r="2.62" style="fill: #ff5a5a; stroke-width: 0px;"/>
      <path d="M33.94,0H14.06C6.31,0,0,6.31,0,14.07v19.87c0,7.75,6.31,14.06,14.06,14.06h19.88c7.75,0,14.06-6.31,14.06-14.06V14.07c0-7.76-6.31-14.07-14.06-14.07ZM46.13,33.94c0,6.72-5.47,12.19-12.19,12.19H14.06c-6.72,0-12.18-5.47-12.18-12.19V14.07C1.88,7.34,7.34,1.88,14.06,1.88h19.88c6.72,0,12.19,5.46,12.19,12.19v19.87Z" style="fill: #0a1c33; stroke-width: 0px;"/>
      <path d="M33.94,43.88h-5.66c-.52,0-.94-.42-.94-.94s.42-.94.94-.94h5.66c4.45,0,8.06-3.62,8.06-8.06V14.07c0-4.45-3.62-8.06-8.06-8.06H14.06c-4.45,0-8.06,3.62-8.06,8.06v19.88c0,4.45,3.62,8.06,8.06,8.06h5.72c.52,0,.94.42.94.94s-.42.94-.94.94h-5.72c-5.48,0-9.94-4.46-9.94-9.94V14.07c0-5.48,4.46-9.94,9.94-9.94h19.88c5.48,0,9.94,4.46,9.94,9.94v19.88c0,5.48-4.46,9.94-9.94,9.94Z" style="fill: #0a1c33; stroke-width: 0px;"/>
      <path d="M24,36.94c-7.13,0-12.94-5.8-12.94-12.94,0-2.24.58-4.44,1.68-6.38.26-.45.83-.61,1.28-.35.45.26.61.83.35,1.28-.94,1.65-1.44,3.54-1.44,5.45,0,6.1,4.96,11.06,11.06,11.06s11.06-4.96,11.06-11.06-4.96-11.06-11.06-11.06c-1.79,0-3.49.41-5.07,1.23-.46.24-1.03.06-1.26-.4-.24-.46-.06-1.03.4-1.26,1.82-.94,3.87-1.43,5.93-1.43,7.13,0,12.94,5.8,12.94,12.94s-5.8,12.94-12.94,12.94Z" style="fill: #0a1c33; stroke-width: 0px;"/>
      <path d="M24,15.57c-4.65,0-8.44,3.78-8.44,8.43s3.79,8.44,8.44,8.44,8.44-3.78,8.44-8.44-3.79-8.43-8.44-8.43ZM24,30.57c-3.62,0-6.56-2.95-6.56-6.57s2.94-6.56,6.56-6.56,6.56,2.94,6.56,6.56-2.94,6.57-6.56,6.57Z" style="fill: #0a1c33; stroke-width: 0px;"/>
      <path d="M36.31,8.14c-1.97,0-3.57,1.59-3.57,3.56s1.6,3.56,3.57,3.56,3.56-1.6,3.56-3.56-1.6-3.56-3.56-3.56ZM36.31,13.39c-.93,0-1.69-.76-1.69-1.69s.76-1.69,1.69-1.69,1.68.76,1.68,1.69-.75,1.69-1.68,1.69Z" style="fill: #0a1c33; stroke-width: 0px;"/>
    </g>
  </g>
</svg>