<?xml version="1.0" encoding="UTF-8"?>
<svg xmlns="http://www.w3.org/2000/svg" viewBox="0 0 48 48">
  <g style="isolation: isolate;">
    <g id="Camada_2" data-name="Camada 2">
      <g id="Camada_1-2" data-name="Camada 1">
        <g>
          <path d="M44.05.76H3.96C2.19.76.75,2.19.75,3.96v40.09c0,1.77,1.43,3.2,3.2,3.2h40.09c1.77,0,3.2-1.43,3.2-3.2V3.96c0-1.77-1.43-3.2-3.2-3.2ZM14.38,40.04h-6.41v-21.65h6.41v21.65ZM11.18,14.38c-1.77,0-3.21-1.43-3.21-3.2s1.44-3.21,3.21-3.21,3.2,1.44,3.2,3.21-1.43,3.2-3.2,3.2ZM40.04,40.04h-6.41v-10.42c0-2.41-1.8-4.01-4.01-4.01-1.98,0-4.01,1.6-4.01,4.01v10.42h-6.42v-21.65h6.42v4.01c1.77-3.77,5.61-4.01,7.21-4.01,3.58,0,7.22,2.87,7.22,6.42v15.23Z" style="fill: #3cafe6; stroke-width: 0px;"/>
          <path d="M3.96,42.44V.75C2.19.75.75,2.19.75,3.96v40.08c0,1.77,1.44,3.21,3.21,3.21h40.08c1.77,0,3.21-1.44,3.21-3.21H5.56c-.89,0-1.6-.72-1.6-1.6Z" style="fill: #1c9ad6; stroke-width: 0px;"/>
          <rect x="7.97" y="18.39" width="2.4" height="21.65" style="fill: #08100c; mix-blend-mode: multiply; opacity: .3; stroke-width: 0px;"/>
          <g style="mix-blend-mode: multiply; opacity: .3;">
            <rect x="19.19" y="18.39" width="2.4" height="21.65" style="fill: #08100c; stroke-width: 0px;"/>
            <path d="M36.03,29.61c0-2.4-1.79-4.01-4.01-4.01-.39,0-.78.06-1.16.18,1.6.48,2.76,1.9,2.76,3.83v10.42h2.4v-10.42h0Z" style="fill: #08100c; stroke-width: 0px;"/>
          </g>
          <path d="M12.78,12.78c-1.77,0-3.21-1.44-3.21-3.21,0-.47.1-.92.28-1.32-1.11.5-1.89,1.62-1.89,2.92,0,1.77,1.44,3.21,3.21,3.21,1.3,0,2.42-.77,2.92-1.89-.4.18-.85.28-1.32.28Z" style="fill: #08100c; mix-blend-mode: multiply; opacity: .3; stroke-width: 0px;"/>
          <path d="M47.25,8.72c.42,0,.75-.34.75-.75V3.96c0-2.18-1.78-3.96-3.96-3.96H3.96C1.78,0,0,1.78,0,3.96v40.08c0,2.18,1.78,3.96,3.96,3.96h40.08c2.18,0,3.96-1.78,3.96-3.96V11.17c0-.42-.34-.75-.75-.75s-.75.34-.75.75v32.87c0,1.35-1.1,2.46-2.46,2.46H3.96c-1.35,0-2.46-1.1-2.46-2.46V3.96c0-1.35,1.1-2.46,2.46-2.46h40.08c1.35,0,2.46,1.1,2.46,2.46v4.01c0,.42.34.75.75.75Z" style="fill: #0a1c33; stroke-width: 0px;"/>
          <path d="M14.38,22.4c.42,0,.75-.34.75-.75v-3.26c0-.42-.34-.75-.75-.75h-6.41c-.42,0-.75.34-.75.75v21.65c0,.42.34.75.75.75h6.41c.42,0,.75-.34.75-.75v-15.08c0-.42-.34-.75-.75-.75s-.75.34-.75.75v14.33h-4.91v-20.14h4.91v2.51c0,.42.34.75.75.75Z" style="fill: #0a1c33; stroke-width: 0px;"/>
          <path d="M33.62,40.79h6.41c.42,0,.75-.34.75-.75v-15.23c0-1.9-.9-3.71-2.53-5.11-1.53-1.31-3.51-2.06-5.44-2.06-3.18,0-5.19,1.06-6.46,2.36v-1.61c0-.42-.34-.75-.75-.75h-6.41c-.42,0-.75.34-.75.75v21.65c0,.42.34.75.75.75h6.41c.42,0,.75-.34.75-.75v-10.42c0-2.01,1.69-3.26,3.26-3.26,1.89,0,3.26,1.37,3.26,3.26v10.42c0,.42.34.75.75.75ZM29.61,24.85c-2.29,0-4.76,1.82-4.76,4.76v9.67h-4.91v-20.14h4.91v3.26c0,.34.24.65.57.73.34.08.71-.09.86-.41,1.11-2.37,3.31-3.58,6.53-3.58,3.05,0,6.46,2.42,6.46,5.66v14.48h-4.91v-9.67c0-2.71-2.05-4.76-4.76-4.76Z" style="fill: #0a1c33; stroke-width: 0px;"/>
          <path d="M11.17,7.21c-2.18,0-3.96,1.78-3.96,3.96s1.78,3.96,3.96,3.96,3.96-1.78,3.96-3.96-1.78-3.96-3.96-3.96ZM11.17,13.63c-1.35,0-2.46-1.1-2.46-2.46s1.1-2.46,2.46-2.46,2.46,1.1,2.46,2.46-1.1,2.46-2.46,2.46Z" style="fill: #0a1c33; stroke-width: 0px;"/>
        </g>
      </g>
    </g>
  </g>
</svg>