<?xml version="1.0" encoding="UTF-8"?>
<svg id="Camada_2" data-name="Camada 2" xmlns="http://www.w3.org/2000/svg" viewBox="0 0 47.72 48">
  <g id="Camada_1-2" data-name="Camada 1">
    <g>
      <path d="M18.49,22.8c.86,1.49,2.36,3.16,3.74,4.23,1.67,1.3,4.3,3,5.15,2.24.4-.36,1.51-1.96,1.66-2.08.15-.11.64-.94,1.8-.37,1.16.56,4.06,2,4.06,2,0,0,.63.25.6,1.24-.03.98-.07,1.24-.07,1.24,0,0-.42,3.37-5.02,3.51-2.08.06-4.5-.79-6.63-1.88-3.65-1.86-5.93-3.92-8.37-7.12-1.66-2.17-3.31-5.03-3.02-7.56.51-4.4,3.31-4.81,3.31-4.81,0,0,.25-.03,1.24-.01.98.02,1.21.66,1.21.66,0,0,1.36,3.1,1.87,4.29s-.04,1.7-.16,1.85-.85,1-1.23,1.39-.29.92-.13,1.19ZM23.93,4.69C13.39,4.69,4.85,13.24,4.85,23.78c0,3.4.89,6.71,2.61,9.64l.81,1.38-1.95,6.93,7.12-1.93,1.33.73c2.81,1.55,5.95,2.34,9.16,2.34,4.94,0,9.44-1.88,12.83-4.95-.34-.35-.35-.91-.02-1.27.35-.38.94-.41,1.32-.06h.01c3.08-3.38,4.95-7.88,4.95-12.81,0-10.54-8.54-19.09-19.09-19.09Z" style="fill: #2bb140; fill-rule: evenodd; stroke-width: 0px;"/>
      <path d="M40.75,6.96C36.26,2.47,30.29,0,23.94,0c-5,0-9.78,1.53-13.83,4.43-.42.3-.52.89-.22,1.31.3.42.89.52,1.31.22,3.73-2.67,8.13-4.08,12.73-4.08,12.08,0,21.9,9.83,21.9,21.9s-9.83,21.9-21.9,21.9c-3.68,0-7.32-.93-10.52-2.69-.21-.12-.46-.15-.7-.08l-10.44,2.82,2.85-10.16c.07-.25.03-.51-.09-.73-1.96-3.34-3-7.17-3-11.07,0-4.6,1.41-9.01,4.08-12.73.3-.42.2-1.01-.22-1.31-.42-.3-1.01-.2-1.31.22C1.69,14,.16,18.78.16,23.78c0,4.1,1.06,8.12,3.06,11.67L.03,46.81c-.09.32,0,.67.24.91.18.18.42.28.67.28.08,0,.16-.01.24-.03l11.67-3.15c3.4,1.79,7.22,2.74,11.09,2.74,6.35,0,12.32-2.47,16.81-6.96,4.49-4.49,6.96-10.46,6.96-16.81s-2.47-12.32-6.96-16.81Z" style="fill: #0a1c33; stroke-width: 0px;"/>
      <path d="M39.31,35.14c.43.29,1.01.17,1.3-.26,2.2-3.29,3.36-7.13,3.36-11.11,0-5.35-2.08-10.38-5.87-14.16s-8.81-5.87-14.16-5.87-10.38,2.08-14.16,5.87-5.87,8.81-5.87,14.16c0,3.56.95,7.06,2.74,10.12l.6,1.03-1.83,6.54c-.09.32,0,.67.24.91s.59.33.91.25l6.75-1.83.99.55c2.93,1.61,6.26,2.46,9.62,2.46,3.97,0,7.81-1.16,11.11-3.36.43-.29.55-.87.26-1.3s-.87-.55-1.3-.26c-2.98,1.99-6.46,3.04-10.06,3.04-3.05,0-6.06-.77-8.72-2.23l-1.32-.73c-.21-.12-.46-.15-.7-.08l-5.53,1.49,1.5-5.34c.07-.25.03-.51-.09-.73l-.81-1.38c-1.62-2.77-2.48-5.94-2.48-9.17C5.79,13.77,13.93,5.62,23.94,5.62s18.15,8.14,18.15,18.15c0,3.6-1.05,7.08-3.04,10.06-.29.43-.17,1.01.26,1.3Z" style="fill: #0a1c33; stroke-width: 0px;"/>
      <path d="M20.51,20.9l.06-.07c.84-.94.63-2.05.3-2.81-.48-1.13-1.74-4-1.86-4.28-.19-.47-.81-1.22-2.06-1.24-.97-.02-1.29,0-1.37.02,0,0-.02,0-.02,0-.14.02-3.52.57-4.1,5.63-.27,2.33.81,5.1,3.2,8.24,2.65,3.48,5.08,5.55,8.69,7.38,1.79.91,4.41,1.98,6.85,1.98.08,0,.16,0,.24,0,2.74-.08,4.2-1.22,4.95-2.16.79-1,.96-1.98.98-2.15.02-.11.05-.45.08-1.34.03-1.25-.68-1.9-1.14-2.11-.26-.13-2.94-1.46-4.05-1.99-.74-.36-1.84-.57-2.82.5,0,0,0,.01-.01.02-.13.12-.26.29-.66.82-.25.33-.74.99-.95,1.21-.44.03-1.92-.62-4.01-2.24-1.32-1.02-2.72-2.61-3.5-3.95,0-.02-.01-.05-.01-.07.32-.33.85-.94,1.21-1.37ZM21.66,27.78c.62.48,1.85,1.39,3.03,1.99.56.28,2.26,1.15,3.31.22.29-.26.7-.8,1.25-1.53.16-.21.35-.47.43-.56.05-.04.09-.09.13-.13.17-.18.25-.27.62-.08,1.13.55,3.95,1.95,4.05,2,.03.03.09.15.08.37-.02.78-.05,1.06-.06,1.11,0,.02,0,0,0,.03-.01.06-.13.69-.65,1.31-.73.87-1.9,1.34-3.48,1.38-2.11.06-4.53-.93-6.18-1.78-3.37-1.72-5.55-3.58-8.05-6.85-2.06-2.7-3.04-5.08-2.83-6.89.39-3.39,2.25-3.93,2.5-3.98.09,0,.39-.02,1.09,0,.23,0,.34.06.37.1.05.11,1.37,3.13,1.86,4.28.25.58.1.75.02.83-.01.01-.02.03-.03.04l-.05.06c-.54.63-.92,1.07-1.13,1.28-.69.71-.63,1.7-.27,2.31.9,1.56,2.46,3.33,3.98,4.51Z" style="fill: #0a1c33; stroke-width: 0px;"/>
      <path d="M7.79,8.56c.23,0,.45-.08.63-.24.38-.35.41-.94.06-1.32-.35-.38-.94-.41-1.32-.06h0c-.38.35-.41.94-.06,1.32.18.2.44.31.69.31Z" style="fill: #0a1c33; stroke-width: 0px;"/>
    </g>
  </g>
</svg>