<?xml version="1.0" encoding="UTF-8"?>
<svg id="Camada_2" data-name="Camada 2" xmlns="http://www.w3.org/2000/svg" viewBox="0 0 665.55 450.62">
  <defs>
    <style>
      .cls-1 {
        fill: #fff;
      }
    </style>
  </defs>
  <g id="Camada_2-2" data-name="Camada 2">
    <path class="cls-1" d="M595.81,355.36v36c0,2.21-1.79,4-4,4h-63.66c-7.3-5.68-16.47-9.06-26.42-9.06s-19.12,3.38-26.42,9.06h-190.29c-7.3-5.68-16.47-9.06-26.42-9.06s-19.12,3.38-26.42,9.06h-46.1c-3.25,0-6.17-1.96-7.4-4.97l-15.98-39.03L36.86,44H4c-2.21,0-4-1.79-4-4V4C0,1.79,1.79,0,4,0h50.13c7.41,0,14.1,4.48,16.91,11.35l6.62,16.18,130.55,318.86c1.23,3.01,4.15,4.97,7.4,4.97h376.2c2.21,0,4,1.79,4,4ZM258.6,394.3c-15.55,0-28.16,12.61-28.16,28.16s12.61,28.16,28.16,28.16,28.16-12.61,28.16-28.16-12.61-28.16-28.16-28.16ZM501.73,394.3c-15.55,0-28.16,12.61-28.16,28.16s12.61,28.16,28.16,28.16,28.16-12.61,28.16-28.16-12.61-28.16-28.16-28.16ZM226.66,328.27h-2.54M321.51,103.32h-160.05c-4.42,0-8,3.58-8,8v23.98l1.85,5.45,19.39,57.05,12.23,36,29.52,86.86c.97,2.85,2.75,5.11,4.82,6.43.91.59,1.88.99,2.85,1.18h95.71c2.21,0,4-1.69,4-3.78v-26.47c0-2.09-1.79-3.78-4-3.78h-72.53l-19.76-60.44h42.26c2.2,0,4-1.8,4-4v-28c0-2.21-1.8-4-4-4h-54.03l-16.69-51.07c-.85-2.61,1.12-5.29,3.87-5.24l118.56,1.83c2.2,0,4-1.79,4-4v-32c0-2.21-1.79-4-4-4ZM493.5,107.32v32c0,2.21,1.8,4,4,4l118.56-1.83c2.75-.05,4.72,2.63,3.87,5.24l-16.69,51.07h-70.03c-2.2,0-4,1.79-4,4v28c0,2.2,1.8,4,4,4h58.26s-19.76,60.44-19.76,60.44h-72.53c-2.21,0-4,1.69-4,3.78v26.47c0,2.09,1.79,3.78,4,3.78h95.71c.97-.19,1.94-.59,2.85-1.18,2.07-1.32,3.85-3.58,4.82-6.43l29.52-86.86,12.23-36,19.39-57.05,1.85-5.45v-23.98c0-4.42-3.58-8-8-8h-160.05c-2.21,0-4,1.79-4,4ZM476.61,103.32h-25.66c-3.67,0-6.86,2.49-7.76,6.05l-28.46,113.16-35.77-113.61c-1.05-3.33-4.14-5.6-7.63-5.6h-25.36c-2.21,0-4,1.79-4,4v216.95c0,2.21,1.79,4,4,4h28c2.21,0,4-1.79,4-4v-121.94l17.42,55.31c.66,2.11,2.91,3.28,5.02,2.61l16.95-5.34,1.03.26,13.09,3.29c2.14.54,4.32-.76,4.86-2.9l8.27-32.9v101.6c0,2.21,1.79,4,4,4h28c2.21,0,4-1.79,4-4V107.32c0-2.21-1.79-4-4-4Z"/>
  </g>
</svg>