<svg width="17" height="18" viewBox="0 0 17 18" fill="none" xmlns="http://www.w3.org/2000/svg">
<g id="Group">
<path id="Vector" d="M16.1635 4.00679L13.9923 8.81473C13.7902 9.26216 13.3504 9.55071 12.871 9.55071H12.8662L5.57988 9.5216L6.07369 11.313C6.10098 11.4118 6.18956 11.4811 6.28933 11.4817L12.7256 11.5198C13.056 11.5217 13.3224 11.7989 13.3205 12.1388C13.3186 12.4775 13.0511 12.7507 12.7223 12.7507H12.7187L6.28239 12.7127C5.97179 12.7109 5.67696 12.6077 5.42978 12.4143C5.18248 12.2209 5.0071 11.9562 4.92232 11.6489L2.23472 1.89815C2.22253 1.85397 2.18294 1.82314 2.13831 1.82314H0.598387C0.267988 1.82314 0 1.54759 0 1.20762C0 0.867647 0.267988 0.592102 0.598387 0.592102H2.13831C2.41883 0.592102 2.69666 0.687939 2.92035 0.86201C3.14416 1.03597 3.30958 1.2847 3.38609 1.56232L5.24019 8.28918L12.8708 8.31967H12.871C12.8864 8.31967 12.9004 8.31047 12.9069 8.29609L14.7109 4.30132H5.8671C5.53659 4.30132 5.26872 4.02577 5.26872 3.6858C5.26872 3.34583 5.53659 3.07028 5.8671 3.07028H15.5825C15.8023 3.07028 16.0042 3.18407 16.1226 3.3747C16.2408 3.56546 16.2561 3.80177 16.1635 4.00679Z" fill="white"/>
<path id="Vector_2" d="M6.54242 17.0432C7.3011 17.0432 7.91614 16.4106 7.91614 15.6302C7.91614 14.8498 7.3011 14.2171 6.54242 14.2171C5.78374 14.2171 5.1687 14.8498 5.1687 15.6302C5.1687 16.4106 5.78374 17.0432 6.54242 17.0432Z" fill="white"/>
<path id="Vector_3" d="M11.416 17.0432C12.1746 17.0432 12.7897 16.4106 12.7897 15.6302C12.7897 14.8498 12.1746 14.2171 11.416 14.2171C10.6573 14.2171 10.0422 14.8498 10.0422 15.6302C10.0422 16.4106 10.6573 17.0432 11.416 17.0432Z" fill="white"/>
</g>
</svg>
