<svg width="180" height="208" viewBox="0 0 180 208" fill="none" xmlns="http://www.w3.org/2000/svg">
<g id="Group 47">
<g id="Camada 1">
<g id="Group">
<path id="Vector" d="M166.533 38.1818L147.404 94.4887C145.626 99.7312 141.43 103.486 136.71 104.07L136.663 104.076L64.9445 112.629L70.6395 132.022C70.9541 133.093 71.8592 133.76 72.8394 133.639L136.198 126.223C139.448 125.844 142.202 128.612 142.34 132.405C142.478 136.191 139.973 139.563 136.738 139.963L136.704 139.967L73.3456 147.384C70.29 147.738 67.3351 146.947 64.8149 145.094C62.2878 143.234 60.4392 140.495 59.4636 137.168L28.4705 31.6131C28.3291 31.1347 27.9253 30.8383 27.4889 30.8923L12.3301 32.7684C9.08085 33.1705 6.31436 30.427 6.15582 26.6287C5.99728 22.8304 8.5075 19.4338 11.7568 19.0317L26.9089 17.1565C29.6681 16.815 32.4519 17.5489 34.7282 19.2195C37.0113 20.8892 38.7584 23.4597 39.6397 26.4679L61.0205 99.2914L136.13 90.3342C136.278 90.3159 136.415 90.1966 136.475 90.0239L152.371 43.2408L65.3388 54.0121C62.0828 54.4151 59.3227 51.6629 59.1645 47.8724C59.0063 44.0819 61.5162 40.6776 64.7654 40.2754L160.377 28.4423C162.539 28.1747 164.579 29.1975 165.836 31.1832C167.087 33.1696 167.351 35.7898 166.534 38.1896" fill="#0A1C33"/>
<path id="Vector_2" d="M92.9969 181.662C93.3625 190.462 87.569 198.357 80.0612 199.291C72.5534 200.225 66.1668 193.844 65.8013 185.044C65.4357 176.243 71.2292 168.348 78.737 167.414C86.2448 166.481 92.6314 172.862 92.9969 181.662Z" fill="#0A1C33"/>
<path id="Vector_3" d="M140.187 177.469C140.553 186.269 134.759 194.164 127.252 195.098C119.744 196.031 113.357 189.651 112.992 180.85C112.626 172.05 118.42 164.155 125.927 163.221C133.435 162.287 139.822 168.668 140.187 177.469Z" fill="#0A1C33"/>
</g>
</g>
</g>
</svg>
