<svg width="37" height="42" viewBox="0 0 37 42" fill="none" xmlns="http://www.w3.org/2000/svg">
<g id="Group 47">
<g id="Camada 1">
<g id="Group">
<path id="Vector" d="M32.4363 7.3825L29.1685 18.4287C28.8648 19.4571 28.0816 20.2162 27.1727 20.3657L27.1636 20.3672L13.3481 22.5765L14.6001 26.286C14.6693 26.4909 14.8496 26.6131 15.0384 26.582L27.2445 24.6574C27.8706 24.559 28.4251 25.0737 28.4811 25.8067C28.537 26.5383 28.0782 27.2104 27.455 27.3129L27.4486 27.3139L15.2425 29.2385C14.6538 29.3308 14.0758 29.2004 13.5737 28.8612C13.0702 28.5207 12.6912 28.0048 12.4767 27.3684L5.66289 7.17703C5.63182 7.08552 5.55138 7.03127 5.46734 7.04509L2.54776 7.52525C1.92195 7.62817 1.3653 7.11852 1.30529 6.38456C1.24528 5.6506 1.70492 4.9738 2.33073 4.87088L5.24901 4.39093C5.78043 4.30353 6.32492 4.4241 6.77842 4.72987C7.23321 5.03542 7.59121 5.51947 7.78502 6.09493L12.4856 20.0252L26.9543 17.7116C26.9828 17.7069 27.0083 17.6828 27.0187 17.6489L29.7342 8.47104L12.9719 11.2278C12.3448 11.331 11.7893 10.8196 11.7294 10.0871C11.6695 9.35467 12.129 8.67637 12.7548 8.57344L31.1696 5.5449C31.586 5.47643 31.9887 5.65864 32.2474 6.03326C32.5047 6.4081 32.5761 6.9132 32.4364 7.38401" fill="#F4F1F8"/>
<path id="Vector_2" d="M19.3107 35.7214C19.4494 37.4219 18.389 38.9948 16.9431 39.2335C15.4971 39.4722 14.2117 38.2864 14.073 36.5859C13.9343 34.8855 14.9947 33.3125 16.4407 33.0738C17.8866 32.8352 19.172 34.0209 19.3107 35.7214Z" fill="#F4F1F8"/>
<path id="Vector_3" d="M28.4123 34.5454C28.551 36.2459 27.4906 37.8188 26.0446 38.0575C24.5987 38.2962 23.3132 37.1104 23.1745 35.4099C23.0358 33.7094 24.0962 32.1365 25.5422 31.8978C26.9882 31.6591 28.2736 32.8449 28.4123 34.5454Z" fill="#F4F1F8"/>
</g>
</g>
</g>
</svg>
