<?xml version="1.0" encoding="UTF-8"?>
<svg id="Camada_2" data-name="Camada 2" xmlns="http://www.w3.org/2000/svg" viewBox="0 0 48 48">
  <g id="Camada_1-2" data-name="Camada 1">
    <path d="M41.53,0H6.47C2.9,0,0,2.9,0,6.47v35.06c0,3.57,2.9,6.47,6.47,6.47h17.29l.03-17.15h-4.46c-.58,0-1.05-.47-1.05-1.05l-.02-5.53c0-.58.47-1.06,1.05-1.06h4.45v-5.34c0-6.2,3.79-9.58,9.32-9.58h4.54c.58,0,1.05.47,1.05,1.05v4.66c0,.58-.47,1.05-1.05,1.05h-2.79c-3.01,0-3.59,1.43-3.59,3.53v4.63h6.61c.63,0,1.12.55,1.04,1.18l-.66,5.53c-.06.53-.51.93-1.04.93h-5.92l-.03,17.15h10.29c3.57,0,6.47-2.9,6.47-6.47V6.47c0-3.57-2.9-6.47-6.47-6.47Z" style="fill: #002c66; stroke-width: 0px;"/>
  </g>
</svg>