<?xml version="1.0" encoding="UTF-8"?>
<svg id="Camada_2" data-name="Camada 2" xmlns="http://www.w3.org/2000/svg" viewBox="0 0 39.79 48">
  <g id="Camada_1-2" data-name="Camada 1">
    <g id="Layer_9" data-name="Layer 9">
      <path d="M32.31,4.34s-.09-.07-.13-.1c-.18-.14-.36-.28-.54-.41-.2-.15-.4-.29-.61-.43-.27-.18-.54-.35-.81-.52-.73-.45-1.49-.84-2.27-1.18-.2-.09-.4-.18-.61-.26-.28-.12-.57-.22-.85-.32-.26-.09-.53-.18-.79-.26-.54-.16-1.07-.3-1.62-.42-.21-.05-.43-.09-.65-.13-.37-.06-.74-.12-1.11-.16-.19-.03-.38-.05-.57-.06-.24-.03-.49-.05-.74-.05-.36-.03-.73-.04-1.09-.04h-.04c-5.49,0-10.46,2.23-14.05,5.82-.22.23-.44.46-.66.69-.64.7-1.24,1.46-1.77,2.25-.18.27-.35.54-.52.81-.17.27-.32.55-.48.83-.23.43-.44.86-.64,1.3-.19.44-.38.89-.55,1.34-.23.61-.42,1.24-.58,1.87-.1.4-.19.8-.27,1.21-.24,1.21-.36,2.47-.36,3.76,0,.42.02.85.05,1.27.04.63.12,1.27.23,1.91.11.63.25,1.27.41,1.91.06.24.13.48.2.72.07.24.14.48.22.72.28.9.63,1.79,1.02,2.68.13.29.26.59.4.88.22.46.46.92.7,1.38.2.37.4.73.6,1.09.39.68.8,1.35,1.22,2,.04.04.07.08.09.13.23.34.47.69.71,1.03.47.68.96,1.34,1.47,1.98,3.96,5.04,8.66,8.9,11.76,10.25.53.23,1.13.23,1.65,0,6.25-2.72,19.06-15.69,19.06-27.95,0-6.29-2.92-11.9-7.48-15.54ZM11.36,9.69h1.75c.43,0,.85.14,1.19.4.34.25.59.62.71,1.03l2,7.06,8,.03,1.59-3.43h-9.25c-.65,0-1.18-.53-1.18-1.18s.53-1.18,1.18-1.18h11.03c.42,0,.8.21,1.03.57.23.35.26.79.08,1.17l-2.47,5.31c-.31.67-.98,1.1-1.72,1.1l-7.62-.03.33,1.17,7.13.04c.65,0,1.17.53,1.17,1.18s-.53,1.18-1.18,1.18l-7.32-.05c-.46,0-.9-.15-1.26-.43-.37-.28-.63-.66-.76-1.1l-2.97-10.49h-1.46c-.65,0-1.17-.52-1.17-1.18s.52-1.17,1.17-1.17ZM25.71,26.78c0,1.14-.93,2.06-2.06,2.06s-2.06-.92-2.06-2.06.92-2.06,2.06-2.06,2.06.93,2.06,2.06ZM20.17,26.78c0,1.14-.92,2.06-2.06,2.06s-2.06-.92-2.06-2.06.93-2.06,2.06-2.06,2.06.93,2.06,2.06Z" style="fill: #dd4247; stroke-width: 0px;"/>
      <path d="M32.31,4.34s-.09-.07-.13-.1c-.18-.14-.36-.28-.54-.41-.2-.15-.4-.29-.61-.43-.27-.18-.54-.35-.81-.52-.73-.45-1.49-.84-2.27-1.18-.2-.09-.4-.18-.61-.26-.28-.12-.57-.22-.85-.32-.26-.09-.53-.18-.79-.26-.54-.16-1.07-.3-1.62-.42-.21-.05-.43-.09-.65-.13-.37-.06-.74-.12-1.11-.16-.19-.03-.38-.05-.57-.06-.24-.03-.49-.05-.74-.05-.36-.03-.73-.04-1.09-.04h-.04c-5.49,0-10.46,2.23-14.05,5.82-.22.23-.44.46-.66.69-.64.71-1.23,1.46-1.77,2.25-.18.27-.35.54-.52.81-.17.27-.32.55-.48.83-.23.43-.44.86-.64,1.3-.19.44-.38.89-.55,1.34-.22.61-.41,1.24-.58,1.87-.1.4-.19.8-.27,1.21-.23,1.21-.35,2.47-.35,3.76,0,.42.02.85.04,1.27.05.63.12,1.27.23,1.91.11.63.25,1.27.41,1.91.06.24.13.48.2.72.07.24.14.48.22.72.29.9.64,1.79,1.02,2.68.13.29.26.59.4.88.22.46.46.92.7,1.38.2.37.4.73.6,1.09.39.68.8,1.35,1.22,2,.04.04.07.08.09.13.23.34.47.69.71,1.03.47.68.96,1.34,1.47,1.98,14.36-.05,25.99-11.7,25.99-26.08,0-2.42-.34-4.83-1-7.16ZM18.11,28.84c-1.13,0-2.06-.92-2.06-2.06s.93-2.06,2.06-2.06,2.06.93,2.06,2.06-.92,2.06-2.06,2.06ZM23.65,28.84c-1.14,0-2.06-.92-2.06-2.06s.92-2.06,2.06-2.06,2.06.93,2.06,2.06-.93,2.06-2.06,2.06ZM29.49,14.16l-2.47,5.31c-.31.67-.98,1.1-1.72,1.1l-7.62-.03.33,1.17,7.13.04c.65,0,1.17.53,1.17,1.18s-.53,1.18-1.18,1.18l-7.32-.05c-.46,0-.9-.15-1.26-.43-.37-.28-.63-.66-.76-1.1l-2.97-10.49h-1.46c-.65,0-1.17-.52-1.17-1.18s.52-1.17,1.17-1.17h1.75c.43,0,.85.14,1.19.4.34.25.59.62.71,1.03l2,7.06,8,.03,1.59-3.43h-9.25c-.65,0-1.18-.53-1.18-1.18s.53-1.18,1.18-1.18h11.03c.42,0,.8.21,1.03.57.23.35.26.79.08,1.17Z" style="fill: #e55353; stroke-width: 0px;"/>
    </g>
  </g>
</svg>