<svg width="102" height="48" viewBox="0 0 102 48" fill="none" xmlns="http://www.w3.org/2000/svg">
<g id="Camada 2">
<g id="Group">
<g id="Group_2">
<path id="Vector" d="M48.3673 9.96314L41.8703 23.9914C41.2655 25.2969 39.9495 26.1388 38.515 26.1388H38.5006L16.6971 26.0539L18.1748 31.2808C18.2564 31.5689 18.5215 31.7713 18.8201 31.773L38.0799 31.8841C39.0686 31.8898 39.8658 32.6984 39.8601 33.6901C39.8544 34.6783 39.0539 35.4756 38.0699 35.4756H38.0592L18.7993 35.3648C17.8699 35.3594 16.9876 35.0583 16.248 34.494C15.508 33.9297 14.9832 33.1573 14.7295 32.2607L6.68715 3.8107C6.65066 3.6818 6.53218 3.59183 6.39864 3.59183H1.7906C0.801922 3.59183 0 2.78787 0 1.79592C0 0.803967 0.801922 0 1.7906 0H6.39864C7.23805 0 8.06942 0.279626 8.73881 0.787518C9.40853 1.29507 9.90353 2.02083 10.1325 2.83084L15.6807 22.458L38.5143 22.547H38.515C38.5609 22.547 38.603 22.5201 38.6224 22.4782L44.0207 10.8225H17.5566C16.5676 10.8225 15.766 10.0185 15.766 9.02658C15.766 8.03463 16.5676 7.23066 17.5566 7.23066H46.6286C47.2866 7.23066 47.8907 7.56266 48.2448 8.11889C48.5986 8.67546 48.6445 9.36495 48.3673 9.96314Z" fill="white"/>
<path id="Vector_2" d="M19.578 48C21.8482 48 23.6887 46.1541 23.6887 43.8771C23.6887 41.6001 21.8482 39.7542 19.578 39.7542C17.3077 39.7542 15.4673 41.6001 15.4673 43.8771C15.4673 46.1541 17.3077 48 19.578 48Z" fill="white"/>
<path id="Vector_3" d="M34.161 48C36.4312 48 38.2717 46.1541 38.2717 43.8771C38.2717 41.6001 36.4312 39.7542 34.161 39.7542C31.8907 39.7542 30.0503 41.6001 30.0503 43.8771C30.0503 46.1541 31.8907 48 34.161 48Z" fill="white"/>
</g>
<g id="Group_3">
<g id="Group_4">
<path id="Vector_4" d="M60.4358 20.8766C60.7992 20.8766 60.981 21.0589 60.981 21.4235V23.2459C60.981 23.6104 60.7992 23.7927 60.4358 23.7927H53.2215C52.858 23.7927 52.6763 23.6104 52.6763 23.2459V11.3989C52.6763 11.0343 52.858 10.8521 53.2215 10.8521H55.2203C55.5837 10.8521 55.7655 11.0343 55.7655 11.3989V20.8766H60.4358Z" fill="white"/>
<path id="Vector_5" d="M66.5415 14.461C67.8863 14.461 68.9673 14.8984 69.7853 15.7732C70.603 16.648 71.012 17.8024 71.012 19.2361V19.5641C71.012 19.9286 70.8302 20.1109 70.4668 20.1109H64.7425C64.9969 21.0586 65.6629 21.5326 66.7413 21.5326C67.3712 21.5326 67.8498 21.3808 68.1768 21.077C68.4432 20.8464 68.6916 20.7793 68.9218 20.8766L70.2121 21.4235C70.5755 21.5816 70.6662 21.8125 70.4845 22.116C70.0966 22.6873 69.5638 23.1459 68.8853 23.4919C68.2066 23.8384 67.486 24.0113 66.7229 24.0113C65.2934 24.0113 64.1454 23.5739 63.2793 22.6991C62.4131 21.8243 61.98 20.6698 61.98 19.2361C61.98 17.8024 62.398 16.648 63.2337 15.7732C64.0698 14.8984 65.1719 14.461 66.5412 14.461H66.5415ZM66.4508 16.9397C65.4936 16.9397 64.9122 17.4499 64.7064 18.4708H68.2682C68.1346 17.4499 67.5292 16.9397 66.4511 16.9397H66.4508Z" fill="white"/>
<path id="Vector_6" d="M72.5562 15.2264C72.5562 14.8618 72.7379 14.6795 73.1014 14.6795H74.6279C74.9428 14.6795 75.1426 14.8376 75.2277 15.1535L75.464 16.0283H75.5366C75.6818 15.5543 75.9908 15.1747 76.4633 14.889C76.9359 14.6037 77.4929 14.4607 78.1351 14.4607C79.4073 14.4607 80.3156 14.9833 80.8609 16.028H80.9154C81.1092 15.554 81.4606 15.1743 81.9694 14.8887C82.4781 14.6033 83.0474 14.4603 83.6776 14.4603C84.7071 14.4603 85.5342 14.7702 86.158 15.3898C86.7819 16.0095 87.0938 16.8296 87.0938 17.8504V23.2452C87.0938 23.6098 86.9121 23.792 86.5486 23.792H84.7316C84.3681 23.792 84.1864 23.6098 84.1864 23.2452V18.7799C84.1864 18.3059 84.0528 17.9233 83.7867 17.6315C83.52 17.3398 83.1749 17.1942 82.7509 17.1942C82.3024 17.1942 81.9449 17.3398 81.6788 17.6315C81.4121 17.9233 81.2789 18.3059 81.2789 18.7799V23.2452C81.2789 23.6098 81.0971 23.792 80.7337 23.792H78.9166C78.5532 23.792 78.3714 23.6098 78.3714 23.2452V18.7799C78.3714 18.3059 78.2379 17.9233 77.9718 17.6315C77.705 17.3398 77.36 17.1942 76.9359 17.1942C76.4874 17.1942 76.13 17.3398 75.8636 17.6315C75.5968 17.9233 75.464 18.3059 75.464 18.7799V23.2452C75.464 23.6098 75.2822 23.792 74.9187 23.792H73.1017C72.7382 23.792 72.5565 23.6098 72.5565 23.2452V15.2257L72.5562 15.2264Z" fill="white"/>
<path id="Vector_7" d="M93.1089 14.461C94.4537 14.461 95.5347 14.8984 96.3527 15.7732C97.1704 16.648 97.5794 17.8024 97.5794 19.2361V19.5641C97.5794 19.9286 97.3976 20.1109 97.0341 20.1109H91.3099C91.5643 21.0586 92.2303 21.5326 93.3087 21.5326C93.9386 21.5326 94.4172 21.3808 94.7442 21.077C95.0106 20.8464 95.2589 20.7793 95.4892 20.8766L96.7795 21.4235C97.1429 21.5816 97.2336 21.8125 97.0519 22.116C96.664 22.6873 96.1311 23.1459 95.4527 23.4919C94.774 23.8384 94.0534 24.0113 93.2903 24.0113C91.8608 24.0113 90.7128 23.5739 89.8466 22.6991C88.9805 21.8243 88.5474 20.6698 88.5474 19.2361C88.5474 17.8024 88.9654 16.648 89.8011 15.7732C90.6372 14.8984 91.7393 14.461 93.1085 14.461H93.1089ZM93.0178 16.9397C92.0606 16.9397 91.4793 17.4499 91.2734 18.4708H94.8352C94.7017 17.4499 94.0962 16.9397 93.0182 16.9397H93.0178Z" fill="white"/>
</g>
<g id="Group_5">
<path id="Vector_8" d="M60.2041 28.2966C60.2041 28.3651 60.1585 28.4107 60.0789 28.4107C59.9651 28.4107 59.8854 28.3537 59.6578 28.1026C59.0775 27.4863 58.4175 27.2237 57.5299 27.2237C55.3561 27.2237 53.6833 29.3241 53.6833 31.6981C53.6833 33.4558 54.8781 34.5518 56.3578 34.5518C57.2112 34.5518 58.2809 34.1409 59.0095 33.4789C59.1347 33.3648 59.1802 33.342 59.2485 33.342C59.3168 33.342 59.3737 33.3876 59.3737 33.4675C59.3737 33.536 59.3396 33.6045 59.0323 33.867C58.4178 34.392 57.2912 34.78 56.3919 34.78C54.6964 34.78 53.4102 33.6045 53.4102 31.641C53.4102 29.2667 55.1854 26.9955 57.5299 26.9955C58.4971 26.9955 59.1344 27.2238 59.8744 27.8629C60.1361 28.0797 60.2044 28.2167 60.2044 28.2966H60.2041Z" fill="white"/>
<path id="Vector_9" d="M64.2437 33.9922C64.2437 33.7069 64.3689 33.2161 64.7103 32.2688C64.0047 33.6384 63.0147 34.6431 61.9902 34.6431C61.2847 34.6431 60.7612 34.1181 60.7612 33.1708C60.7612 31.5044 62.0926 29.3242 63.7771 29.3242C64.4599 29.3242 64.972 29.8035 65.2223 30.4997C65.2451 30.4084 65.2565 30.3285 65.2792 30.2372C65.3134 30.1003 65.3589 29.872 65.393 29.7236C65.4499 29.4839 65.5182 29.4041 65.5979 29.4041C65.6661 29.4041 65.7117 29.4725 65.7117 29.5867C65.7117 29.8606 65.4954 30.397 65.0744 31.7784C64.6192 33.2621 64.4827 33.7418 64.4827 34.0385C64.4827 34.3353 64.6078 34.4722 64.7785 34.4722C65.0289 34.4722 65.3361 34.2668 65.7572 33.7304C65.9392 33.5021 66.0417 33.4108 66.1099 33.4108C66.1668 33.4108 66.201 33.4564 66.201 33.5135C66.201 33.7874 65.4158 34.6548 64.8013 34.6548C64.4372 34.6548 64.2437 34.4494 64.2437 33.9929V33.9922ZM65.1316 30.8076C64.8585 29.9744 64.3692 29.5407 63.7661 29.5407C62.264 29.5407 61.0233 31.6753 61.0233 33.1704C61.0233 33.9922 61.4443 34.4259 61.9906 34.4259C63.0602 34.4259 64.5058 32.828 65.1316 30.8076Z" fill="white"/>
<path id="Vector_10" d="M66.9297 34.4601C66.9297 34.015 67.328 33.3302 67.988 30.8874C68.1587 30.2254 68.1018 29.9744 68.1814 29.632C68.2156 29.4836 68.2839 29.4265 68.3635 29.4265C68.4318 29.4265 68.4887 29.4836 68.4887 29.6548C68.4887 30.1113 68.2042 30.9787 67.9083 31.8693C68.6252 30.397 69.4673 29.3466 70.287 29.3466C70.8332 29.3466 71.2656 29.7803 71.2656 30.0542C71.2656 30.1456 71.2201 30.1912 71.1405 30.1912C71.0722 30.1912 70.9925 30.1227 70.8901 29.9629C70.7535 29.7461 70.5373 29.5749 70.2301 29.5749C69.3197 29.5749 67.8173 32.0633 67.4987 33.3759C67.4076 33.7639 67.3166 34.0721 67.2597 34.3003C67.1914 34.5743 67.1345 34.6313 67.0549 34.6313C66.9866 34.6313 66.9297 34.5971 66.9297 34.4601Z" fill="white"/>
<path id="Vector_11" d="M71.4473 34.4601C71.4473 34.015 71.8456 33.3302 72.5056 30.8874C72.6763 30.2254 72.6194 29.9744 72.699 29.632C72.7332 29.4836 72.8014 29.4265 72.8811 29.4265C72.9494 29.4265 73.0063 29.4836 73.0063 29.6548C73.0063 30.1113 72.7218 30.9787 72.4259 31.8693C73.1428 30.397 73.9849 29.3466 74.8046 29.3466C75.3508 29.3466 75.7832 29.7803 75.7832 30.0542C75.7832 30.1456 75.7377 30.1912 75.658 30.1912C75.5898 30.1912 75.5101 30.1227 75.4077 29.9629C75.2711 29.7461 75.0549 29.5749 74.7477 29.5749C73.8373 29.5749 72.3349 32.0633 72.0162 33.3759C71.9252 33.7639 71.8342 34.0721 71.7773 34.3003C71.709 34.5743 71.6521 34.6313 71.5724 34.6313C71.5042 34.6313 71.4473 34.5971 71.4473 34.4601Z" fill="white"/>
<path id="Vector_12" d="M77.2057 29.6434C77.274 29.4151 77.3422 29.3466 77.4219 29.3466C77.4902 29.3466 77.5357 29.4037 77.5357 29.5977C77.5357 30.3624 76.3408 32.6568 76.3408 33.8096C76.3408 34.2204 76.4888 34.4031 76.7163 34.4031C76.9667 34.4031 77.2171 34.2547 77.6836 33.6155C77.7974 33.4558 77.8885 33.3759 77.9453 33.3759C78.0022 33.3759 78.0364 33.4215 78.0364 33.4786C78.0364 33.7525 77.3422 34.5857 76.7391 34.5857C76.3067 34.5857 76.0791 34.3118 76.0791 33.7982C76.0791 32.965 76.6936 31.7323 77.0236 30.4994C77.126 30.1227 77.1488 29.8488 77.2057 29.6434ZM78.2526 27.543C78.2526 28.068 78.0022 28.4218 77.8202 28.4218C77.695 28.4218 77.6267 28.3077 77.6267 28.0908C77.6267 27.68 77.8315 27.2006 78.0819 27.2006C78.1957 27.2006 78.2526 27.3147 78.2526 27.543Z" fill="white"/>
<path id="Vector_13" d="M78.9467 34.6199C78.8784 34.6199 78.8442 34.5629 78.8442 34.483C78.8442 34.0379 79.2653 33.2846 79.857 31.013C80.0505 30.2597 80.0049 29.9858 80.0732 29.6776C80.1187 29.4836 80.187 29.4151 80.2781 29.4151C80.3577 29.4151 80.3919 29.495 80.3919 29.6092C80.3919 29.963 80.2098 30.7277 79.9481 31.5722C80.6422 30.0885 81.6664 29.2892 82.634 29.2892C83.4191 29.2892 83.8402 29.8257 83.8402 30.5561C83.8402 31.6176 82.9184 33.0446 82.9184 33.9462C82.9184 34.2544 83.0778 34.4256 83.3167 34.4256C83.5216 34.4256 83.8174 34.2315 84.2157 33.6951C84.3523 33.5125 84.4888 33.3755 84.5685 33.3755C84.6254 33.3755 84.6595 33.4212 84.6595 33.4783C84.6595 33.7522 83.8629 34.6082 83.294 34.6082C82.8957 34.6082 82.6567 34.3343 82.6567 33.912C82.6567 33.0217 83.5785 31.6864 83.5785 30.5219C83.5785 29.9284 83.2485 29.5061 82.634 29.5061C81.3936 29.5061 79.9594 31.1724 79.3677 33.5696C79.3222 33.775 79.2084 34.1745 79.1629 34.3343C79.106 34.5511 79.0377 34.6196 78.9467 34.6196V34.6199Z" fill="white"/>
<path id="Vector_14" d="M85.5134 34.6427C85.4337 34.6427 85.3882 34.5857 85.3882 34.4373C85.3882 34.209 85.5475 33.684 85.8661 32.7139C87.0951 28.9472 87.4251 27.7602 87.5731 26.493C87.5958 26.2533 87.6527 26.162 87.7551 26.162C87.8462 26.162 87.8917 26.2533 87.8917 26.4017C87.8917 26.9381 87.2658 29.3466 86.4237 31.6179C87.152 30.2026 88.1193 29.3121 89.1438 29.3121C90.02 29.3121 90.3727 29.917 90.3727 30.6588C90.3727 31.7203 89.4851 33.0445 89.4851 33.9005C89.4851 34.2658 89.6217 34.437 89.8379 34.437C90.0883 34.437 90.35 34.2544 90.7824 33.6723C90.919 33.4897 91.0328 33.3755 91.1238 33.3755C91.1921 33.3755 91.2262 33.4212 91.2262 33.5011C91.2262 33.8207 90.441 34.6196 89.872 34.6196C89.451 34.6196 89.2234 34.3457 89.2234 33.912C89.2234 33.0674 90.111 31.6293 90.111 30.6588C90.111 29.9626 89.8152 29.5289 89.1551 29.5289C87.892 29.5289 86.4806 31.3779 86.0596 33.0103C85.8661 33.7636 85.7979 34.0717 85.7182 34.3457C85.6499 34.5739 85.593 34.6424 85.5134 34.6424V34.6427Z" fill="white"/>
<path id="Vector_15" d="M91.9087 32.6797C91.9087 31.0818 93.1604 29.301 94.8108 29.301C95.9146 29.301 96.6543 30.0543 96.6543 31.2413C96.6543 32.8277 95.4253 34.6313 93.7636 34.6313C92.7166 34.6313 91.9087 33.9465 91.9087 32.6797ZM92.1704 32.771C92.1704 33.7525 92.8191 34.4145 93.7749 34.4145C95.2429 34.4145 96.3926 32.7139 96.3926 31.1728C96.3926 30.2141 95.7894 29.5178 94.788 29.5178C93.3201 29.5178 92.1704 31.207 92.1704 32.771Z" fill="white"/>
<path id="Vector_16" d="M101.684 30.0771C101.821 30.2255 101.878 30.3168 101.878 30.3967C101.878 30.4652 101.832 30.5108 101.775 30.5108C101.73 30.5108 101.65 30.4652 101.548 30.351C101.104 29.8717 100.58 29.5749 99.8408 29.5749C98.8052 29.5749 98.259 30.1456 98.259 30.7733C98.259 31.207 98.5094 31.5152 99.4994 31.869C100.785 32.3255 101.218 32.7821 101.218 33.3413C101.218 34.0603 100.467 34.631 99.3514 34.631C98.4866 34.631 97.69 34.2544 97.2576 33.7864C97.121 33.6381 97.0869 33.5353 97.0869 33.4668C97.0869 33.387 97.1324 33.3413 97.2007 33.3413C97.2576 33.3413 97.3373 33.3984 97.4397 33.5239C97.8721 34.0832 98.4638 34.4142 99.3742 34.4142C100.285 34.4142 100.956 33.9348 100.956 33.3641C100.956 32.8734 100.717 32.588 99.3628 32.0973C98.3614 31.732 97.9973 31.3326 97.9973 30.7961C97.9973 30.0429 98.6573 29.3581 99.9318 29.3581C100.649 29.3581 101.366 29.7347 101.684 30.0771Z" fill="white"/>
</g>
</g>
</g>
</g>
</svg>
