<?xml version="1.0" encoding="UTF-8"?>
<svg xmlns="http://www.w3.org/2000/svg" viewBox="0 0 200 200">
  <defs>
    <style>
      .cls-1 {
        fill: #bcbec0;
      }

      .cls-1, .cls-2, .cls-3, .cls-4, .cls-5, .cls-6, .cls-7, .cls-8, .cls-9, .cls-10, .cls-11, .cls-12, .cls-13, .cls-14, .cls-15, .cls-16, .cls-17, .cls-18, .cls-19, .cls-20, .cls-21, .cls-22, .cls-23, .cls-24, .cls-25, .cls-26, .cls-27, .cls-28, .cls-29 {
        stroke-width: 0px;
      }

      .cls-2, .cls-9 {
        fill: #f4f1f8;
      }

      .cls-3, .cls-30 {
        fill: #0a1c33;
      }

      .cls-4 {
        fill: #da9764;
      }

      .cls-4, .cls-26 {
        opacity: .54;
      }

      .cls-5 {
        fill: #e74b3c;
      }

      .cls-6 {
        fill: #101923;
      }

      .cls-6, .cls-9, .cls-19 {
        opacity: .15;
      }

      .cls-6, .cls-11, .cls-19 {
        mix-blend-mode: darken;
      }

      .cls-7 {
        fill: #aad4d2;
      }

      .cls-8 {
        fill: #c1392b;
      }

      .cls-31 {
        isolation: isolate;
      }

      .cls-9 {
        mix-blend-mode: color-dodge;
      }

      .cls-10 {
        fill: #dbe6ec;
      }

      .cls-11 {
        opacity: .25;
      }

      .cls-11, .cls-13, .cls-19 {
        fill: #08100c;
      }

      .cls-12 {
        fill: gray;
      }

      .cls-14 {
        fill: #d7d8d9;
      }

      .cls-15 {
        fill: #eeac74;
      }

      .cls-16 {
        fill: #f6e2ca;
      }

      .cls-17 {
        fill: #e8f3f8;
      }

      .cls-18 {
        fill: #f0ae74;
      }

      .cls-20, .cls-26 {
        fill: #dc9964;
      }

      .cls-21 {
        fill: #000;
        opacity: .42;
      }

      .cls-22 {
        fill: #99bfbd;
      }

      .cls-23 {
        fill: #fff;
      }

      .cls-24 {
        fill: #002c66;
      }

      .cls-25 {
        fill: #273147;
      }

      .cls-27 {
        fill: #34415e;
      }

      .cls-28 {
        fill: #c3d4de;
      }

      .cls-29 {
        fill: #2c4861;
      }
    </style>
  </defs>
  <g class="cls-31">
    <g id="Camada_2" data-name="Camada 2">
      <g id="Camada_1-2" data-name="Camada 1">
        <g>
          <circle class="cls-30" cx="100" cy="100" r="100"/>
          <g>
            <g>
              <g>
                <path class="cls-29" d="M88.38,60.76h0c-.4,0-.72-.32-.72-.72v-24.49h1.45v24.49c0,.4-.32.72-.72.72Z"/>
                <path class="cls-24" d="M104.27,46.95c-5.54,2.51-11.08-2.51-16.62,0v-11.41c5.54-2.51,11.08,2.51,16.62,0-1.18,2.44-2.36,4.53-3.54,6.43,1.18,1.9,2.36,3.61,3.54,4.98Z"/>
              </g>
              <g>
                <path class="cls-24" d="M115.74,87.57l-12.27-4.14-15.08-29.98c3.31,12.07,1.74,6.12,7.09,26.87l2.84,1.78,9.4,24.53h19.67l-11.65-19.06Z"/>
                <g>
                  <polygon class="cls-24" points="107.72 106.63 51.36 106.63 64.45 88.2 78.55 87.03 85.88 65.91 88.38 53.45 91.01 63.03 95.48 80.32 98.32 82.1 107.72 106.63"/>
                  <polygon class="cls-9" points="107.72 106.63 51.36 106.63 64.45 88.2 78.55 87.03 85.88 65.91 88.38 53.45 91.01 63.03 95.48 80.32 98.32 82.1 107.72 106.63"/>
                </g>
                <g>
                  <polygon class="cls-24" points="88.38 53.45 85.88 65.91 78.55 87.03 75.25 80.5 88.38 53.45"/>
                  <polygon class="cls-6" points="88.38 53.45 85.88 65.91 78.55 87.03 75.25 80.5 88.38 53.45"/>
                </g>
                <g>
                  <polygon class="cls-24" points="78.55 87.03 64.45 88.2 67.48 81.17 75.25 80.5 78.55 87.03"/>
                  <polygon class="cls-11" points="78.55 87.03 64.45 88.2 67.48 81.17 75.25 80.5 78.55 87.03"/>
                </g>
                <g>
                  <polygon class="cls-24" points="67.48 81.17 64.45 88.2 51.36 106.63 40.33 106.63 67.48 81.17"/>
                  <polygon class="cls-19" points="67.48 81.17 64.45 88.2 51.36 106.63 40.33 106.63 67.48 81.17"/>
                </g>
                <polygon class="cls-28" points="88.38 53.45 91.01 63.03 93.44 63.5 88.38 53.45"/>
                <polygon class="cls-10" points="85.88 65.91 91.01 63.03 88.38 53.45 85.88 65.91"/>
                <polygon class="cls-17" points="83.72 63.06 85.88 65.91 88.38 53.45 83.72 63.06"/>
              </g>
              <path class="cls-2" d="M68.29,53.24c0,.69-.28,1.31-.74,1.76-.45.46-1.08.74-1.78.74h-23.34c-1.39,0-2.51-1.13-2.51-2.51s1.13-2.51,2.51-2.51h3.01c.23-1.42,1.47-2.51,2.96-2.51h.06c.35-2.04,2.12-3.59,4.26-3.59s3.91,1.55,4.26,3.59h2.82c1.49,0,2.73,1.09,2.96,2.51h2.97c1.39,0,2.57,1.14,2.56,2.53Z"/>
              <g>
                <g>
                  <path class="cls-18" d="M62.97,77.76l-.51-.59-.25.16s-.47.13-.53.17c-.03.02-.09.09-.16.17h-.03s-.14.04-.25.13c-.07.06-.14.26-.19.41-.02.06-.16.16-.27.23l.4.69c.11-.08.22-.12.24-.13,0,0,0,0,0,.01,0,.05,0,.13.05.15.05.03.1,0,.12-.01,0,0,0,0,0,.01.02.03.05.06.08.07.05.01.12-.02.13-.02.11.07.11.08.25.03,0,0,.05.04.08.04.03,0,.14-.01.18-.15,0-.02.01-.04.02-.07.03,0,.05,0,.07,0,.08-.02.15-.08.15-.17,0-.01,0-.02,0-.03.01-.02.06-.02.09-.03.02-.01.04-.04.05-.06.01-.02.05-.1.02-.12-.02-.01-.01-.04,0-.04.06,0,.13-.1.11-.25,0,0,0-.02-.01-.02-.02,0-.02-.03,0-.04.02,0,.03-.02.04-.05.01-.04.01-.07.01-.11,0,0,0-.11-.09-.14,0,0,.19-.22.19-.22Z"/>
                  <path class="cls-20" d="M62.81,78.28s0,0,0,0c0,0,0,.01,0,.02,0,0,0,.01,0,.01h-.63s-.02,0-.02-.01h0s0-.02.02-.02h.63Z"/>
                  <path class="cls-20" d="M62.71,78.59s0,0,0,0c0,0-.01.02,0,.02,0,0,0,0,0,0h-.64s-.02,0-.02-.01c0,0,0-.01,0-.01,0,0,0,0,.01,0h.65Z"/>
                  <path class="cls-20" d="M62.58,78.83s-.04.01-.04.03h-.2s0-.01,0-.02h.25Z"/>
                  <g>
                    <path class="cls-16" d="M61.38,78.22c0,.09-.02.17-.08.17,0,0-.01,0-.02,0,0,0,0,0,0,0,0-.07,0-.22,0-.32,0,0,0,0,0,0,.07,0,.09,0,.09.15Z"/>
                    <path class="cls-20" d="M62.78,77.98c-.12-.02-1-.01-1-.01-.04.07-.08.09-.09.16-.02.06-.05.17-.07.21-.04.09-.16.1-.22.11.06-.03.13-.08.16-.15.02-.04.05-.15.07-.21.01-.06.03-.07.15-.22,0,0,0,.04.02.04,1.15.06.9.06.99.07Z"/>
                  </g>
                  <path class="cls-16" d="M61.63,78.89s-.05.04-.09.03c-.04,0-.08-.03-.07-.06s.05-.06.09-.05c.04,0,.07.05.07.08Z"/>
                  <path class="cls-16" d="M61.85,78.82s-.05.04-.09.03c-.04-.01-.08-.03-.07-.07s.05-.06.09-.05c.04.01.07.05.06.08Z"/>
                  <path class="cls-16" d="M62.09,78.82s-.05.04-.1.03c-.05-.01-.08-.03-.07-.07,0-.04.05-.06.1-.05s.08.05.07.09Z"/>
                  <path class="cls-16" d="M62.32,78.85s-.04.05-.09.04c-.04,0-.08-.02-.07-.06,0-.04.05-.07.09-.06.04,0,.08.04.07.08Z"/>
                  <path class="cls-20" d="M61.67,78.85l-.08.3s0,0,0,0c0,0,0-.01,0-.01,0,0,0,0-.02.01l.08-.3s.03,0,.03,0Z"/>
                  <path class="cls-20" d="M61.81,79.2s0,0-.01,0c0,0,0,0-.01,0l.1-.38s.02-.01.02,0c0,0,0-.02-.1.38Z"/>
                  <path class="cls-20" d="M62.15,78.89l-.08.34s-.01,0-.01,0c0,0,0,0-.01,0l.08-.34s.03-.01.03,0Z"/>
                </g>
                <g>
                  <rect class="cls-7" x="62.29" y="77.24" width=".99" height=".35" transform="translate(85.41 -19.66) rotate(52.16)"/>
                  <g>
                    <polygon class="cls-25" points="66.89 83.62 66.65 84.16 66.45 84.34 67.31 84.85 68.17 84.75 68.14 83.67 66.89 83.62"/>
                    <polygon class="cls-25" points="66.91 85.37 66.88 85.61 68.1 85.73 68.15 85.49 66.91 85.37"/>
                    <path class="cls-27" d="M64.47,84.98c.07-.16.29-.24.5-.21.6.06,1.37-.34,1.56-.56.84.38,1.32.38,1.7.26.02.11.05.58-.07,1.03-.12-.01-.9-.09-1.39-.14-.21.08-.59.16-.8.15-.88-.03-1.43-.32-1.49-.36-.04-.02-.02-.15,0-.18Z"/>
                    <path class="cls-25" d="M66.48,84.52l-.12-.19c-.04-.07-.15,0-.1.07l.12.19c.04.07.15,0,.1-.07Z"/>
                    <path class="cls-25" d="M66.2,84.69l-.1-.2c-.04-.07-.15-.02-.11.05l.1.2c.04.07.15.02.11-.05Z"/>
                    <path class="cls-25" d="M65.92,84.82l-.08-.21c-.03-.08-.14-.03-.11.04l.08.21c.03.08.14.03.11-.04Z"/>
                    <path class="cls-25" d="M65.59,84.92l-.05-.22c-.02-.08-.14-.05-.12.03l.05.22c.02.08.14.05.12-.03Z"/>
                    <path class="cls-25" d="M64.47,85.15c.07.04.61.33,1.49.36.21,0,.59-.08.8-.15.49.05,1.27.12,1.39.14,0-.03.02-.07.03-.1-.4-.04-1.06-.1-1.4-.14-.21.08-.59.16-.8.15-.78-.02-1.35-.29-1.52-.37,0,.05,0,.11.02.12Z"/>
                  </g>
                  <g>
                    <polygon class="cls-25" points="76.31 84.52 76.87 84.67 77.08 84.85 77.45 83.91 77.21 83.08 76.14 83.17 76.31 84.52"/>
                    <polygon class="cls-25" points="78.03 84.23 78.27 84.21 78.19 82.99 77.95 82.98 78.03 84.23"/>
                    <path class="cls-27" d="M78.03,86.7c-.17-.05-.28-.25-.29-.45-.03-.61-.56-1.3-.8-1.45.24-.89.16-1.36-.02-1.72.11-.03.57-.15,1.03-.09,0,.12.06.9.09,1.39.11.2.25.55.28.76.11.88-.09,1.46-.11,1.53-.01.04-.15.04-.17.03Z"/>
                    <path class="cls-25" d="M77.26,84.78l-.16.15c-.06.05.02.14.08.09l.16-.15c.06-.05-.02-.14-.08-.09Z"/>
                    <path class="cls-25" d="M77.48,85.03l-.18.13c-.07.05,0,.15.07.1l.18-.13c.07-.05,0-.15-.07-.1Z"/>
                    <path class="cls-25" d="M77.64,85.29l-.19.11c-.07.04-.01.15.06.11l.19-.11c.07-.04.01-.15-.06-.11Z"/>
                    <path class="cls-25" d="M77.8,85.6l-.21.08c-.08.03-.03.14.04.11l.21-.08c.08-.03.03-.14-.04-.11Z"/>
                    <path class="cls-25" d="M78.2,86.66c.02-.07.23-.65.11-1.53-.03-.21-.17-.57-.28-.76-.03-.49-.08-1.27-.09-1.39-.04,0-.07,0-.11,0,.03.4.07,1.06.09,1.41.11.2.25.55.28.76.1.77-.07,1.38-.13,1.56.05,0,.11,0,.12-.04Z"/>
                  </g>
                  <path class="cls-27" d="M66.34,78.94l.18,4.31.23.27-.22.11.02.51,1.66.16v-4.05s2.72-.17,2.72-.17l.12,3.41c.02.66.56,1.18,1.22,1.18h4.58s-.03-1.55-.03-1.55h-3.93s.88-5.16.88-5.16l-2.7-.44-4.14.68c-.37.06-.63.39-.62.76Z"/>
                  <path class="cls-25" d="M70.95,80.08l.04,1.15.08,2.25c.02.66.56,1.18,1.22,1.18h4.58s0-.37,0-.37h-4.22c-.66,0-1.2-.53-1.22-1.18l-.07-1.96,1.96-.44.24-1.41-1.88.52-.72.25Z"/>
                  <path class="cls-25" d="M69.82,77.71c.09.16.15.24.35.33.18.09.38.15.58.18.96.16,1.96.19,2.98.04l.06-.32-2.7-.44-1.27.21Z"/>
                  <g>
                    <path class="cls-25" d="M76.17,75.41l1.16-.61c.14-.07.32-.02.39.12l.23.44.05-.03.05.05.04.08-.39.21-.04-.08v-.07s.04-.03.04-.03l-.23-.44-1.16.61.23.44.05-.03.05.05.04.08-.39.21-.04-.08v-.07s.04-.03.04-.03l-.23-.44c-.07-.14-.02-.32.12-.39Z"/>
                    <g>
                      <path class="cls-25" d="M79.62,74.9l.51.98h0s.87,1.67.87,1.67c.05.09.01.21-.08.26l-4.33,2.27c-.09.05-.21.01-.26-.08l-1.39-2.65c-.04-.09-.03-.19.02-.26l4.43-2.32c.09,0,.18.04.22.13Z"/>
                      <path class="cls-21" d="M75.61,78.62l.72,1.38c.05.09.17.13.26.08l4.33-2.27c.09-.05.13-.17.08-.26l-.06-.11-4.28,2.24c-.09.05-.21.01-.26-.08l-.49-.93,1.82-.95.16.3s.06.05.09.03l.3-.16s.05-.06.03-.09l-.16-.3,2.02-1.06c.09-.05.12-.15.09-.24-.02.03-.04.05-.08.07l-4.34,2.27-.12.06s-.08.03-.12.02Z"/>
                      <path class="cls-27" d="M74.86,75.84h5.42v.2c0,.83-.67,1.5-1.5,1.5h-2.43c-.83,0-1.5-.67-1.5-1.5v-.2h0Z" transform="translate(-26.72 44.73) rotate(-27.64)"/>
                      <rect class="cls-25" x="77.36" y="75.84" width=".44" height="1.69" transform="translate(-26.72 44.73) rotate(-27.64)"/>
                      <g>
                        <g>
                          <path class="cls-1" d="M77.77,77.54h-.01s.16.31.16.31c.02.03.06.05.09.03l.3-.16s.05-.06.03-.09l-.16-.3h-.01s-.12-.21-.12-.21l-.4.21.12.22Z"/>
                          <path class="cls-14" d="M77.77,77.54h-.01s.16.31.16.31c.01.02.03.03.05.04-.01,0-.02-.02-.03-.03l-.15-.28.4-.21-.02-.04-.39.21-.1-.19.38-.2-.02-.03-.4.21.12.22Z"/>
                        </g>
                        <path class="cls-12" d="M78.15,77.57s0,.11-.04.13c-.05.02-.11,0-.13-.04-.02-.05,0-.11.04-.13.05-.02.11,0,.13.04Z"/>
                      </g>
                    </g>
                  </g>
                  <g>
                    <path class="cls-18" d="M76.1,74.42c.06.14.07.27.04.37-.02.08-.1.22-.12.35,0,.03-.02.18.02.42.03-.06.07-.11.13-.14l.05-.02s.07.14.13.26l-.04.02.22.43c.02-.06,0-.13-.02-.18h0c.08.06.14.12.24.08.02,0,.04-.02.06-.04.03-.04.04-.07.04-.09.05.04.13.06.21,0,.07-.05.08-.11.07-.16,0-.03.02-.06.05-.05.03,0,.06,0,.1-.01.12-.07.08-.17.06-.22,0,0,0-.01,0-.01.09.02.18-.11.16-.23-.03-.13-.15-.41-.23-.56-.07-.16-.25-.35-.29-.44-.04-.09-.28-.65-.28-.65l-.84.37s.17.38.23.52Z"/>
                    <path class="cls-20" d="M77.5,75.3c-.03.08-.09.13-.15.12,0,0-.01,0,0,0,0,0,0,0,0,0l-.08-.18s.04-.04.06,0c0,0,.02.04.05.06.03,0,.08-.02.11-.01Z"/>
                    <path class="cls-20" d="M77.36,75.54c-.01.07-.09.14-.18.12-.03,0-.06.02-.05.05.02.15-.14.25-.28.15,0,.05-.04.11-.1.13-.11.04-.16-.02-.24-.08,0,.02.02.04.02.06,0,0-.18-.22-.21-.28-.04-.09-.09-.24-.12-.34,0,0,.07.06.11.14.25.5.44.34.52.34l-.08-.18s.02-.03.02-.02c0,0,.02.02.02.02.12.09.29.06.32-.02l-.06-.13s.04-.05.07,0c.05.1.25.04.25.04Z"/>
                  </g>
                  <rect class="cls-7" x="75.96" y="74" width="1.02" height=".28" transform="translate(179.56 100.91) rotate(150.44)"/>
                  <g>
                    <path class="cls-15" d="M68.93,69.58c-.04-.11-.06-.28-.06-.44,0-.71-.14-2.29-1.53-2.01-1.61.33-1.31,1.22-1.17,1.78,0,0,.07.1.08.15,0,.05-.09.6-.03.75.02.06.1.03.2.01,0,0,.06,0,.1.08l.02.1s.03.05.1.05c0,0-.02.08,0,.12,0,.03.18.15.18.15,0,0-.03.45.38.33.6-.17.57-.14,1.05.73l1.05-1.3s-.3-.34-.35-.48Z"/>
                    <path class="cls-26" d="M67.02,70.65s.1,0,.16-.02c.4-.11.52-.14.69.11.17-.18.43-.51.44-.53.27-.4.03-.74.03-.74.08.47-.69.92-1.32,1.18Z"/>
                    <path class="cls-25" d="M65.99,68.21s.07,0,.08,0c.04,0,.09-.02.13-.08.12-.16.25-.43.41-.37.16.06.16.28.14.42s.22.15.28.25c.06.1.1.2.1.34,0,.14,0,.19,0,.19l.32-.02s.13-.37.25-.47c.12-.11.34-.08.46.17.11.25.13.64.13.64,0,0,.31.15.62.2h0s.07.01.07.01c-.04-.1-.06-.22-.06-.37.01-1.23-.4-2.31-1.6-2.07-.68.14-1.3.43-1.33,1.12v.02Z"/>
                    <g>
                      <polygon class="cls-15" points="67.79 69.31 67.79 69.31 67.79 69.31 67.79 69.31"/>
                      <path class="cls-15" d="M67.98,68.45c-.09-.05-.23-.05-.34.1,0,0-.05.09.03.24.08.16-.07.37.12.52,0,0,.1.03.18-.13.08-.17.11-.25.12-.33,0-.07.05-.3-.11-.39Z"/>
                    </g>
                    <path class="cls-4" d="M67.78,68.76s-.13-.09-.05-.2c.08-.1.26-.05.3.09-.15-.19-.31-.08-.28.03.09.03.15,0,.18.12-.04-.06-.1-.07-.15-.05Z"/>
                    <path class="cls-4" d="M67.81,68.82h-.07c.05.09-.03.13-.03.18,0,.03.03.06.06.03.02-.03.07-.09.13-.11.06-.02.04-.08.03-.08-.01,0-.06,0-.12-.02Z"/>
                    <path class="cls-4" d="M67.79,69.31c.17.12.51-.38.3-.69.02.09,0,.18,0,.22,0,.09-.04.16-.12.33-.08.17-.18.14-.18.14Z"/>
                  </g>
                  <path class="cls-27" d="M67.91,71.3l.02-.22.21,1.13,1.57,2.62-.81-2.18.31-2.9.51.12.29.07.68-.23h0s0,0,0,0l4.01.66c.24.04.44.18.56.39l1.72,3.05-1.12.61-1.73-2.8-1.83.03.26,1.08,1.02,2.75c.27.73.37,1.52.3,2.3l-.02.17c-.56.11-1.16.13-1.69.12-.84-.03-1.5-.15-1.5-.15-.24-.44.05.11-1.97-3.67l-.17-.28-1.12-1.84v-.04s.48-.78.48-.78Z"/>
                  <path class="cls-27" d="M62.39,76.97l.72.91,5.47-3.88-1.15-1.89c-3.95,3.92-2.84,2.85-5.04,4.86Z"/>
                  <polygon class="cls-7" points="69.23 69.75 69 69.7 69.02 69.8 68.26 71.34 67.95 70.86 67.93 71.08 68.15 72.21 69.72 74.83 68.92 72.65 69.23 69.75"/>
                  <polygon class="cls-8" points="68.66 71.76 68.68 72.24 68.35 72.34 68.18 71.97 68.26 71.34 68.66 71.76"/>
                  <polygon class="cls-5" points="68.68 72.24 68.92 72.65 69.72 74.83 68.4 72.63 68.35 72.34 68.68 72.24"/>
                  <path class="cls-25" d="M70.71,69.7c.03.15.21,1.15.34,1.51.17.49.45,1.21.87,1.99.4.74.77,1.46,1.49,1.76l-.83-2.24-.26-1.08,1.83-.03,1.73,2.8.16-.09-1.7-2.78.18-.27-.38.19-1.55-.02c-.49,0-.95-.23-1.24-.62-.19-.26-.37-.61-.5-1.1l-.14-.02h0s0,0,0,0Z"/>
                  <path class="cls-25" d="M70.48,75.78c0,.07.05.14.12.14.07,0,.14-.05.14-.12,0-.07-.05-.14-.12-.14-.07,0-.14.05-.14.12Z"/>
                  <path class="cls-25" d="M70.99,76.85c0,.07.05.14.12.14.07,0,.14-.05.14-.12,0-.07-.05-.14-.12-.14-.07,0-.14.05-.14.12Z"/>
                  <g>
                    <path class="cls-25" d="M71.56,76.28s.02.05.03.08c.02.06.08.1.13.09.44-.07.84-.22,1.19-.41-.02-.02-.03-.04-.05-.07-.35.19-.74.33-1.17.4-.05,0-.11-.03-.12-.09Z"/>
                    <path class="cls-25" d="M71.43,75.81s.01.05.02.08c.42-.05.8-.17,1.13-.34-.01-.02-.03-.05-.04-.07-.33.17-.7.29-1.11.33Z"/>
                  </g>
                  <path class="cls-25" d="M68.01,72.28l.07.08-.02.25,1.32,2.2.39.39,1.34,2.77c.08,0,.17.02.27.03l-1.19-2.4-.58-3.57-.39-.21.21-.12.33-1.83-.51-.12-.31,2.9.81,2.18-1.57-2.62-.21-1.13-.02.22.1.99Z"/>
                  <path class="cls-25" d="M70.95,80.08c1.89,0,2.61-.77,2.61-.77l.05-.29s-.6.65-2.63.76l-3.26.19.23.63v3.67s.28.03.28.03v-4.05s2.72-.17,2.72-.17Z"/>
                  <polygon class="cls-25" points="74.04 83.1 72.91 83.1 73.05 82.28 72.54 83.42 74.04 83.1"/>
                  <polygon class="cls-25" points="66.53 83.25 66.76 83.52 66.54 83.63 66.55 83.85 67.05 83.63 66.51 82.9 66.53 83.25"/>
                  <path class="cls-25" d="M63.01,77.74l.1.13,5.47-3.88c-.93-.73-1.15-1.87-1.15-1.89l-.11.17c.05.26.32,1.17.85,1.64l-5.17,3.82Z"/>
                </g>
                <g>
                  <g>
                    <g>
                      <polygon class="cls-25" points="50.27 99.95 50.66 100.38 50.92 100.49 50.26 101.24 49.33 101.32 49.26 100.97 49.27 100.26 50.27 99.95"/>
                      <polygon class="cls-25" points="50.8 101.61 50.9 101.83 49.78 102.33 49.66 102.12 50.8 101.61"/>
                      <path class="cls-27" d="M52.71,100.26s-.16.36-.5.74c-.32.36-.79.57-1.27.55-.45.2-1.17.52-1.28.56-.26-.38-.37-.84-.39-.96.4,0,.85-.16,1.53-.78.05.03.18.07.31.1.34.09.71,0,.97-.24.15-.14.37-.21.52-.13.02.01.12.1.1.14Z"/>
                      <path class="cls-25" d="M50.94,100.68l.06-.21c.02-.08.14-.05.12.03l-.06.21c-.02.08-.14.05-.12-.03Z"/>
                      <path class="cls-25" d="M51.29,100.74v-.22c0-.08.13-.08.13,0v.22c0,.08-.13.08-.13,0Z"/>
                      <path class="cls-25" d="M51.58,100.73l-.04-.22c-.02-.08.1-.1.12-.02l.04.22c.02.08-.1.1-.12.02Z"/>
                      <path class="cls-25" d="M51.9,100.63l-.1-.2c-.04-.07.07-.13.11-.06l.1.2c.04.07-.07.13-.11.06Z"/>
                      <path class="cls-25" d="M52.71,100.26s-.16.36-.5.74c-.32.36-.79.57-1.27.55-.45.2-1.17.52-1.28.56-.02-.03-.04-.06-.06-.09.37-.16.97-.43,1.29-.57.49.01.95-.2,1.27-.56.32-.37.46-.67.49-.74.03.03.07.08.06.1Z"/>
                    </g>
                    <g>
                      <polygon class="cls-25" points="54.68 93.69 54.93 94.22 55.15 94.39 54.3 94.92 53.39 94.73 53.42 94.37 53.63 93.7 54.68 93.69"/>
                      <path class="cls-27" d="M56.56,94.02c-.15-.09-.37-.02-.53.12-.26.24-.73.37-.97.12-.83.4-1.31.41-1.69.31-.01.11-.04.59.1,1.03.12-.01.9-.11,1.38-.17.49.03.96-.17,1.29-.52.35-.37.49-.68.52-.73.02-.04-.08-.13-.1-.15Z"/>
                      <polygon class="cls-25" points="54.71 95.44 54.74 95.68 53.53 95.83 53.47 95.59 54.71 95.44"/>
                      <path class="cls-25" d="M55.05,94.52l.1-.2c.03-.07.15-.02.11.05l-.1.2c-.03.07-.15.02-.11-.05Z"/>
                      <path class="cls-25" d="M55.35,94.62v-.22c0-.08.12-.08.12,0v.22c0,.08-.12.08-.12,0Z"/>
                      <path class="cls-25" d="M55.64,94.59l-.06-.21c-.02-.08.1-.11.12-.03l.06.21c.02.08-.1.11-.12.03Z"/>
                      <path class="cls-25" d="M56.66,94.17s-.17.36-.52.73c-.33.35-.8.55-1.29.52-.49.06-1.27.16-1.38.17-.01-.03-.02-.07-.03-.1.4-.05,1.06-.13,1.4-.18.49.01.95-.2,1.27-.56.28-.33.43-.6.48-.71.04.03.08.09.07.12Z"/>
                    </g>
                    <path class="cls-27" d="M55.31,93.35l-.3.17.17.17-.21.54c-.76.11-1.23,0-1.51-.13l.78-2.96-2.01.26-.69,4.08-.84,4.85c-.63.38-1.52.49-1.52.49l.23-9.48-.49-2.25,7.26-.13c.29,0,.51.28.42.56-.33,1.03-1.01,3.15-1.28,3.81Z"/>
                    <polygon class="cls-25" points="55.31 93.35 55 93.52 55.17 93.69 55.1 93.88 54.59 93.39 55.41 93.08 55.31 93.35"/>
                    <path class="cls-25" d="M52.37,90.8l.4-1.61c.19-.09.31-.16.32-.16,0,0,0,0,0,0l-4.18.07.24,1.08c.86-.01,1.75-.25,2.47-.51l-1.3,10.86s.02,0,.03-.01c.01,0,.03-.01.04-.02.06-.03.13-.06.19-.1.01,0,.02-.01.04-.02.03-.02.05-.03.08-.05l.84-4.85.69-4.08,2.01-.26-.78,2.96c.08.04.18.08.31.11l1.09-3.57-2.47.16Z"/>
                  </g>
                  <polygon class="cls-7" points="60.79 78.32 60.58 78.47 61.17 79.3 61.37 79.18 60.79 78.32"/>
                  <g>
                    <g>
                      <path class="cls-25" d="M46.95,87.44l-1.27-.4c-.16-.05-.32.04-.37.19l-.15.48-.06-.02-.04.06-.03.08.43.14.03-.08v-.07s-.06-.02-.06-.02l.15-.48,1.28.4-.15.48-.05-.02-.04.06-.03.08.43.13.03-.08v-.07s-.06-.02-.06-.02l.15-.48c.05-.16-.04-.32-.19-.37Z"/>
                      <g>
                        <path class="cls-25" d="M43.39,87.56l-.34,1.08h0s-.57,1.84-.57,1.84c-.03.1.03.22.13.25l4.78,1.49c.1.03.22-.03.25-.13l.91-2.92c.03-.09,0-.19-.07-.25l-4.88-1.52c-.09.01-.17.08-.2.17Z"/>
                        <path class="cls-21" d="M48.11,90.57l-.47,1.52c-.03.1-.14.16-.25.13l-4.78-1.49c-.1-.03-.16-.14-.13-.25l.04-.13,4.71,1.47c.1.03.22-.03.25-.13l.32-1.02-2.01-.62-.1.33s-.05.06-.09.05l-.33-.1s-.06-.05-.05-.09l.1-.33-2.23-.7c-.1-.03-.15-.13-.13-.22.02.03.05.05.09.06l4.79,1.49.14.04s.09.01.13,0Z"/>
                        <path class="cls-27" d="M44.53,88.12h2.49c.84,0,1.53.69,1.53,1.53v.2h-5.55v-.2c0-.84.69-1.53,1.53-1.53Z" transform="translate(63.01 187.55) rotate(-162.7)"/>
                        <rect class="cls-25" x="45.55" y="88.12" width=".45" height="1.73" transform="translate(63.01 187.55) rotate(-162.7)"/>
                        <g>
                          <g>
                            <path class="cls-1" d="M45.74,89.88h.01s-.1.34-.1.34c-.01.04-.05.06-.09.05l-.33-.1s-.06-.05-.05-.09l.1-.34h.01s.08-.24.08-.24l.44.14-.08.24Z"/>
                            <path class="cls-14" d="M45.74,89.88h.01s-.1.34-.1.34c0,.02-.03.04-.05.05,0,0,.02-.02.02-.03l.1-.31-.44-.14v-.04s.45.14.45.14l.06-.21-.42-.13v-.04s.45.14.45.14l-.08.24Z"/>
                          </g>
                          <path class="cls-12" d="M45.36,89.98c-.02.05.01.11.07.12.05.02.11-.01.12-.07.02-.05-.01-.11-.07-.12-.05-.02-.11.01-.12.07Z"/>
                        </g>
                      </g>
                    </g>
                    <g>
                      <path class="cls-18" d="M46.9,87.43c-.02.05-.05.16-.08.28h.05s-.15.48-.15.48c-.03-.06-.03-.13-.01-.19-.07.08-.11.15-.23.13-.07-.01-.12-.07-.13-.11-.12.12-.3.05-.31-.11,0-.03-.03-.05-.06-.04-.03.01-.06.02-.1,0-.13-.04-.11-.16-.1-.21,0,0,0-.01-.01,0-.08.04-.2-.08-.2-.21,0-.13.08-.44.13-.61.04-.17.19-.4.22-.5.01-.04.05-.19.08-.33l.89.28c-.01.05-.02.1-.03.13-.03.15-.02.28.03.38.03.08.14.2.18.33,0,.03.06.18.06.42-.04-.05-.09-.09-.16-.11l-.05-.02Z"/>
                      <path class="cls-20" d="M46.91,87.39s0,.03,0,.04h0c-.02.05-.05.16-.08.28h.04c-.03.14-.08.26-.16.39,0-.03,0-.06,0-.09-.07.08-.11.15-.23.13-.07-.01-.12-.07-.13-.11-.12.12-.3.05-.31-.11,0-.03-.04-.05-.06-.04-.03.01-.06.02-.1,0-.06-.02-.09-.05-.1-.09,0,0,.21.03.25-.09.02-.05.05-.04.05-.04.03,0,0,.05-.02.17.04.08.23.08.33-.04,0-.02,0-.03.03-.03.03,0,0,.04-.03.22,0,0,.01,0,.02,0,.07,0,.14,0,.21-.03.07-.03.17-.2.23-.41.01-.04.03-.08.05-.11.02-.03.03-.05.03-.05Z"/>
                      <path class="cls-20" d="M45.77,87.66s0,0,0,0c-.06.03-.13-.02-.17-.09.03-.02.09,0,.12-.01.05-.03.03-.11.09-.09.03,0,0,.05-.04.2Z"/>
                    </g>
                    <rect class="cls-7" x="45.9" y="86.08" width="1.04" height=".29" transform="translate(30.99 -10.48) rotate(19.23)"/>
                  </g>
                  <path class="cls-27" d="M61.25,79.31l-3.05,1.92-3.11,1.4s-2.19,6.28-2.27,6.45c-.92.22-2.75.43-4.03.04l.82-3.3.59-1.75-.02-1.58-1.91.69-1.28,3.14-1.1-.34,1.14-3.4,3.14-2.22,1.94-.32.49-.3.58,1.78.14,3.46,1.04-2.88-.16-1.75,1.1-.06.37.17,2.04-.48,2.91-1.6.63.94Z"/>
                  <g>
                    <path class="cls-15" d="M52.84,79.62c0-.11-.06-.27-.13-.41-.31-.63-.85-2.08.49-2.42,1.56-.39,1.68.52,1.79,1.07,0,0-.02.12,0,.16.02.05.33.49.35.65,0,.06-.08.07-.17.1,0,0-.05.03-.05.12l.03.09s0,.06-.07.08c0,0,.05.07.05.1,0,.03-.1.21-.1.21,0,0,.22.38-.19.45-.41.07-.59.25-.64.54-.02.15-.37.87-.37.87l-1.09-1.03s.12-.42.11-.57Z"/>
                    <path class="cls-26" d="M54.98,79.75s-.09.05-.16.06c-.33.06-.51.18-.6.39-.22-.08-.56-.27-.58-.28-.41-.23-.34-.64-.34-.64.13.46,1.01.51,1.67.47Z"/>
                    <path class="cls-25" d="M54.84,77.17s-.06.03-.06.04c-.04.02-.09.02-.15-.01-.17-.09-.4-.27-.52-.15-.12.12-.02.32.06.43.08.12-.13.23-.14.34-.01.11,0,.22.05.35.05.13.08.17.08.17l-.29.12s-.27-.27-.42-.31c-.15-.04-.34.07-.33.34s.16.62.16.62c0,0-.21.26-.46.44h0s-.06.04-.06.04c0-.11-.04-.22-.1-.35-.53-1.08-.63-2.21.53-2.5.66-.17,1.33-.18,1.65.42h0Z"/>
                    <g>
                      <polygon class="cls-15" points="53.73 78.9 53.73 78.9 53.73 78.9 53.73 78.9"/>
                      <path class="cls-15" d="M53.19,78.22c.06-.09.18-.14.34-.06,0,0,.08.06.08.23,0,.17.22.3.11.51,0,0-.08.07-.22-.04-.14-.12-.2-.17-.25-.24-.04-.06-.17-.24-.07-.39Z"/>
                    </g>
                    <path class="cls-4" d="M53.5,78.41s.07-.14-.04-.2-.25.07-.23.21c0,0,.04-.16.13-.17s.12.05.13.08c0,0-.03.03-.08.06s-.04.09-.03.13c0,0,0-.05.04-.07.03-.02.03-.03.07-.04Z"/>
                    <path class="cls-4" d="M53.5,78.48l.05-.04s0,.04.02.08c.02.03.07.05.09.08.01.03,0,.07-.04.05-.03-.01-.1-.05-.16-.04-.06,0-.07-.05-.06-.06,0-.01.05-.03.1-.07Z"/>
                    <path class="cls-4" d="M53.73,78.9s-.07.12-.26,0c-.17-.09-.32-.27-.29-.49.02.09.07.16.09.2.04.07.1.13.25.24.14.11.21.05.22.04Z"/>
                  </g>
                  <polygon class="cls-22" points="53.88 81.05 53.17 81.53 53.31 84.98 54.35 82.1 53.88 81.05"/>
                  <polygon class="cls-7" points="52.6 79.74 52.84 79.62 53.9 80.95 54.19 80.35 54.35 82.1 53.88 81.05 53.17 81.53 52.6 79.74"/>
                  <polygon class="cls-5" points="53.88 81.05 53.4 81.37 53.53 81.89 53.26 83.54 53.31 84.98 53.77 83.73 53.94 81.91 54.12 81.59 53.88 81.05"/>
                  <polygon class="cls-25" points="58.15 80.5 57.3 80.07 57.7 79.98 58.11 79.75 58.15 80.5"/>
                  <path class="cls-25" d="M50.19,84.08c.49-1.69.34-3.16.24-3.76l-.27.04s.2.9.09,1.75l-2.13.72-1.3,3.45.16.05,1.28-3.14,1.91-.69h0s.02,1.58.02,1.58Z"/>
                  <path class="cls-25" d="M54.47,81.79l.2.17-1.54,3.79-.75,3.42c-.09.02-.18.03-.29.05l.95-4.01-.55-3.3.37-.47-.38-.03-.39-1.37.49-.3.58,1.78.14,3.46,1.04-2.88-.16-1.75.3-.02.1,1.32-.11.13Z"/>
                  <g>
                    <path class="cls-25" d="M52.45,86.88c.02.08-.02.16-.1.18-.08.02-.16-.02-.18-.1-.02-.08.02-.16.1-.18.08-.02.16.02.18.1Z"/>
                    <path class="cls-25" d="M51.99,88.23c.03.07,0,.16-.07.19-.07.03-.16,0-.19-.07-.03-.07,0-.16.07-.19.07-.03.16,0,.19.07Z"/>
                    <g>
                      <path class="cls-25" d="M51.43,87.65s0,.06-.01.09c0,.06-.06.12-.11.12-.47.02-.92-.04-1.34-.16.01-.03.03-.05.04-.08.41.12.85.17,1.31.15.05,0,.1-.06.11-.12Z"/>
                      <path class="cls-25" d="M51.46,87.13s0,.06,0,.09c-.45.05-.88,0-1.26-.1,0-.03.02-.06.02-.08.38.1.8.14,1.24.09Z"/>
                    </g>
                  </g>
                  <path class="cls-25" d="M61.25,79.31l-3.05,1.92c-.86.38-2.85,1.29-3.11,1.4l.2-2.34.19.09-.13,1.81,2.7-1.13,3.11-1.87.09.13Z"/>
                </g>
              </g>
              <g>
                <path class="cls-23" d="M97.91,39.6l-.94,2.03c-.09.19-.28.31-.49.31h-3.17s.21.74.21.74c.01.04.05.07.09.07l2.79.02c.14,0,.26.12.26.26,0,.14-.12.26-.26.26h0l-2.79-.02c-.13,0-.26-.04-.37-.13-.11-.08-.18-.19-.22-.32l-1.17-4.12s-.02-.03-.04-.03h-.67c-.14,0-.26-.12-.26-.26s.12-.26.26-.26h.67c.12,0,.24.04.34.11.1.07.17.18.2.3l.8,2.84h3.31s0,.01,0,.01c0,0,.01,0,.02,0l.78-1.69h-3.84c-.14,0-.26-.12-.26-.26s.12-.26.26-.26h4.22c.1,0,.18.05.23.13.05.08.06.18.02.27"/>
                <path class="cls-23" d="M94.33,44.51c0,.33-.27.6-.6.6s-.6-.27-.6-.6.27-.6.6-.6.6.27.6.6"/>
                <path class="cls-23" d="M96.45,44.51c0,.33-.27.6-.6.6s-.6-.27-.6-.6.27-.6.6-.6.6.27.6.6"/>
              </g>
            </g>
            <g>
              <path class="cls-13" d="M110.12,159.02c0-4.56-3.7-8.26-8.26-8.26s-8.27,3.7-8.27,8.26,3.7,8.27,8.27,8.27,8.26-3.7,8.26-8.27Z"/>
              <path class="cls-13" d="M75.61,159.02c0-4.56-3.7-8.26-8.27-8.26s-8.27,3.7-8.27,8.26,3.7,8.27,8.27,8.27,8.27-3.7,8.27-8.27Z"/>
              <path class="cls-3" d="M103.23,159.23v-12h-15.54l13.04,13.04c1.38,1.38,2.5.92,2.5-1.03Z"/>
              <path class="cls-3" d="M68.76,159.23v-12h-15.54l13.04,13.04c1.38,1.38,2.5.92,2.5-1.03Z"/>
              <path class="cls-2" d="M158.18,52.8c-.28-1.29-1.55-2.11-2.84-1.83l-22.34,4.83c-.96.21-1.69.98-1.85,1.95l-2.55,15.43-89.55,19.92c-.07.01-.12.04-.18.06-.08.02-.16.04-.23.08-.07.03-.14.07-.21.11-.07.04-.14.07-.2.12-.07.04-.13.1-.18.15-.06.05-.12.09-.17.15-.06.06-.1.12-.15.18-.05.06-.1.11-.14.17-.04.07-.08.14-.11.2-.03.07-.07.13-.1.2-.03.07-.05.15-.07.22-.02.07-.05.14-.06.22-.02.08-.02.16-.03.24,0,.08-.02.15-.02.23,0,.08.01.16.02.24,0,.07,0,.13.02.2l7.18,39.07s0,.02,0,.02c.01.06.03.11.05.16.03.09.05.18.08.27.02.05.05.1.07.15.04.08.08.16.13.24.03.05.07.09.1.14.05.07.11.14.17.2.04.04.08.08.13.13.06.06.13.11.19.16.05.04.1.07.16.11.07.04.15.08.22.12.06.03.11.05.17.08.09.03.18.06.27.08.05.01.1.03.15.04.15.03.29.05.45.05h74.28c2.19,0,3.97,1.78,3.97,3.97s-1.78,3.97-3.97,3.97H50.33c-1.32,0-2.39,1.07-2.39,2.39s1.07,2.39,2.39,2.39h70.7c4.82,0,8.74-3.92,8.74-8.74,0-3.91-2.58-7.22-6.12-8.34l2.81-17c.08-.24.12-.49.13-.76l9.02-54.64,20.75-4.49c1.29-.28,2.11-1.55,1.83-2.84ZM87.79,87.16l18.97-4.22-1.87,13.16-18.03,2.85.93-11.79ZM43.89,105.74l-1.56-8.47,15.55-3.46.29,9.67-14.28,2.26ZM46.32,118.93l-1.56-8.48,13.56-2.14.29,9.59-12.29,1.04ZM48.74,132.12l-1.56-8.48,11.56-.98.28,9.45h-10.29ZM79.46,132.12h-15.66l-.3-9.86,16.84-1.42-.89,11.28ZM80.73,116.02l-17.36,1.47-.3-9.94,18.56-2.93-.9,11.4ZM82.01,99.72l-19.08,3.02-.3-9.98,20.29-4.51-.9,11.47ZM99.78,132.12h-15.53l.92-11.69,16.46-1.39-1.86,13.08ZM102.32,114.19l-16.77,1.42.93-11.76,17.71-2.8-1.86,13.14ZM106.52,118.63l14.79-1.25-2.44,14.74h-14.26l1.91-13.49ZM122.11,112.52l-14.9,1.26,1.92-13.51,15.41-2.43-2.43,14.68ZM125.35,92.87l-15.53,2.45,1.91-13.49,16.02-3.57-2.41,14.61Z"/>
              <path class="cls-24" d="M162.7,51.26c.49,1.92-.67,3.87-2.59,4.37l-17.25,4.41c-1.92.49-3.87-.67-4.37-2.59h0c-.49-1.92.67-3.88,2.59-4.37l17.25-4.41c1.92-.49,3.87.67,4.36,2.59h0Z"/>
            </g>
          </g>
        </g>
      </g>
    </g>
  </g>
</svg>