<?xml version="1.0" encoding="UTF-8"?>
<svg id="Camada_2" data-name="Camada 2" xmlns="http://www.w3.org/2000/svg" xmlns:xlink="http://www.w3.org/1999/xlink" viewBox="0 0 200 200">
  <defs>
    <style>
      .cls-1 {
        clip-path: url(#clippath-20);
      }

      .cls-2 {
        clip-path: url(#clippath-11);
      }

      .cls-3 {
        clip-path: url(#clippath-16);
      }

      .cls-4 {
        fill: #f4f1f8;
      }

      .cls-4, .cls-5, .cls-6, .cls-7, .cls-8 {
        stroke-width: 0px;
      }

      .cls-5 {
        fill: #0a1c33;
      }

      .cls-9 {
        clip-path: url(#clippath-2);
      }

      .cls-10 {
        clip-path: url(#clippath-13);
      }

      .cls-11 {
        clip-path: url(#clippath-15);
      }

      .cls-12 {
        clip-path: url(#clippath-6);
      }

      .cls-6, .cls-13 {
        fill: #99c5ff;
      }

      .cls-14 {
        clip-path: url(#clippath-7);
      }

      .cls-15 {
        clip-path: url(#clippath-21);
      }

      .cls-16 {
        clip-path: url(#clippath-1);
      }

      .cls-17 {
        clip-path: url(#clippath-4);
      }

      .cls-18 {
        clip-path: url(#clippath-12);
      }

      .cls-7 {
        fill: #08100c;
      }

      .cls-19 {
        clip-path: url(#clippath-9);
      }

      .cls-20 {
        clip-path: url(#clippath);
      }

      .cls-21 {
        clip-path: url(#clippath-19);
      }

      .cls-22 {
        clip-path: url(#clippath-3);
      }

      .cls-23 {
        clip-path: url(#clippath-8);
      }

      .cls-8 {
        fill: #002c66;
      }

      .cls-24 {
        clip-path: url(#clippath-18);
      }

      .cls-25 {
        clip-path: url(#clippath-14);
      }

      .cls-26 {
        clip-path: url(#clippath-17);
      }

      .cls-27 {
        clip-path: url(#clippath-5);
      }

      .cls-28 {
        clip-path: url(#clippath-10);
      }
    </style>
    <clipPath id="clippath">
      <polygon class="cls-6" points="92.43 88.88 79.58 102.37 65.53 90.14 65.53 90.14 71.94 82.99 85.38 82.36 92.42 88.88 92.43 88.88"/>
    </clipPath>
    <clipPath id="clippath-1">
      <polygon class="cls-6" points="106.73 112.52 88.15 111.21 88.63 92.59 88.63 92.59 98.22 92.97 107.27 102.93 106.72 112.52 106.73 112.52"/>
    </clipPath>
    <clipPath id="clippath-2">
      <polygon class="cls-6" points="73.3 86.65 68.1 96.57 57.95 91.82 57.96 91.82 60.48 86.63 68.14 84.04 73.29 86.65 73.3 86.65"/>
    </clipPath>
    <clipPath id="clippath-3">
      <polygon class="cls-6" points="82.87 93.36 88.35 96.59 85.37 102.21 85.37 102.21 82.5 100.63 81.25 96.21 82.87 93.36 82.87 93.36"/>
    </clipPath>
    <clipPath id="clippath-4">
      <polygon class="cls-6" points="58.95 77.42 64.29 90.2 51.76 96.1 51.76 96.1 48.81 89.6 52.4 80.27 58.95 77.42 58.95 77.42"/>
    </clipPath>
    <clipPath id="clippath-5">
      <polygon class="cls-6" points="55.38 115.36 69.19 104.38 80.78 117.69 80.77 117.69 73.84 123.56 61.14 122.4 55.39 115.36 55.38 115.36"/>
    </clipPath>
    <clipPath id="clippath-6">
      <polygon class="cls-6" points="50.04 91.64 65.36 94.88 62.8 110.33 62.8 110.32 54.87 108.9 48.49 99.56 50.05 91.65 50.04 91.64"/>
    </clipPath>
    <clipPath id="clippath-7">
      <polygon class="cls-6" points="67.49 104.94 74 95.82 83.4 101.92 83.4 101.92 80.19 106.72 72.24 108.22 67.5 104.93 67.49 104.94"/>
    </clipPath>
    <clipPath id="clippath-8">
      <polygon class="cls-6" points="72 100.03 67.01 96.07 70.74 90.92 70.74 90.92 73.37 92.87 74 97.43 72 100.02 72 100.03"/>
    </clipPath>
    <clipPath id="clippath-9">
      <polygon class="cls-6" points="81.3 118.16 77.77 104.77 90.99 100.65 90.99 100.65 93.02 107.49 88.18 116.24 81.3 118.16 81.3 118.16"/>
    </clipPath>
    <clipPath id="clippath-10">
      <polygon class="cls-6" points="106.07 113.93 117.43 102 129.85 112.82 129.85 112.82 124.19 119.14 112.3 119.69 106.08 113.93 106.07 113.93"/>
    </clipPath>
    <clipPath id="clippath-11">
      <polygon class="cls-6" points="92.96 80.98 111.54 82.29 111.06 100.92 111.06 100.91 101.47 100.53 92.42 90.57 92.97 80.99 92.96 80.98"/>
    </clipPath>
    <clipPath id="clippath-12">
      <polygon class="cls-6" points="116.12 84.12 121.32 74.19 131.46 78.95 131.46 78.95 128.94 84.14 121.27 86.72 116.12 84.12 116.12 84.12"/>
    </clipPath>
    <clipPath id="clippath-13">
      <polygon class="cls-6" points="121.88 97.2 116.4 93.97 119.38 88.35 119.38 88.35 122.26 89.93 123.51 94.35 121.88 97.19 121.88 97.2"/>
    </clipPath>
    <clipPath id="clippath-14">
      <polygon class="cls-6" points="96.41 124.2 92.33 114.44 101.9 109.94 101.89 109.94 104.15 114.9 101.4 122.02 96.41 124.19 96.41 124.2"/>
    </clipPath>
    <clipPath id="clippath-15">
      <polygon class="cls-6" points="86.62 66.8 79.68 89.2 57 83.26 57 83.26 60.22 71.62 75.02 63.4 86.61 66.81 86.62 66.8"/>
    </clipPath>
    <clipPath id="clippath-16">
      <polygon class="cls-6" points="122.53 55.03 94.93 87.05 61.72 60.9 61.73 60.9 75.43 43.98 105.82 41.05 122.51 55.03 122.53 55.03"/>
    </clipPath>
    <clipPath id="clippath-17">
      <polygon class="cls-6" points="128.01 105.38 113.8 102.38 116.17 88.06 116.17 88.06 123.53 89.38 129.45 98.04 128 105.38 128.01 105.38"/>
    </clipPath>
    <clipPath id="clippath-18">
      <polygon class="cls-6" points="123.04 101.18 112.83 105.79 107.77 95.8 107.77 95.8 112.95 93.26 120.58 95.95 123.03 101.17 123.04 101.18"/>
    </clipPath>
    <clipPath id="clippath-19">
      <polygon class="cls-6" points="93.95 86.38 89.06 93.22 82 88.64 82.01 88.64 84.42 85.04 90.38 83.91 93.94 86.38 93.95 86.38"/>
    </clipPath>
    <clipPath id="clippath-20">
      <polygon class="cls-6" points="89.31 114.32 94.3 118.27 90.57 123.42 90.57 123.42 87.94 121.47 87.31 116.92 89.31 114.32 89.31 114.32"/>
    </clipPath>
    <clipPath id="clippath-21">
      <polygon class="cls-6" points="111.75 69.14 115.28 82.54 102.06 86.66 102.06 86.66 100.03 79.82 104.87 71.06 111.75 69.15 111.75 69.14"/>
    </clipPath>
  </defs>
  <g id="Camada_1-2" data-name="Camada 1">
    <g>
      <circle class="cls-5" cx="100" cy="100" r="100"/>
      <g>
        <g>
          <polygon class="cls-13" points="92.43 88.88 79.58 102.37 65.53 90.14 65.53 90.14 71.94 82.99 85.38 82.36 92.42 88.88 92.43 88.88"/>
          <g class="cls-20">
            <rect class="cls-4" x="64.54" y="89.28" width="28.86" height=".46" transform="translate(-4.08 3.77) rotate(-2.67)"/>
            <polygon class="cls-4" points="79.6 103.01 71.72 83.07 72.15 82.9 79.53 101.57 85.15 82.3 85.6 82.43 79.6 103.01"/>
            <polygon class="cls-4" points="83.16 89.4 78.61 82.45 74.78 89.79 74.37 89.57 78.56 81.53 83.55 89.14 83.16 89.4"/>
          </g>
        </g>
        <g>
          <polygon class="cls-13" points="106.73 112.52 88.15 111.21 88.63 92.59 88.63 92.59 98.22 92.97 107.27 102.93 106.72 112.52 106.73 112.52"/>
          <g class="cls-16">
            <rect class="cls-4" x="97.44" y="88.12" width=".46" height="28.86" transform="translate(-43.58 92.29) rotate(-42.24)"/>
            <polygon class="cls-4" points="87.67 111.63 98.02 92.86 98.42 93.08 88.73 110.67 107.17 102.72 107.36 103.15 87.67 111.63"/>
            <polygon class="cls-4" points="100.43 105.71 102.89 97.77 94.79 99.5 94.69 99.04 103.56 97.15 100.88 105.85 100.43 105.71"/>
          </g>
        </g>
        <g>
          <polygon class="cls-13" points="73.3 86.65 68.1 96.57 57.95 91.82 57.96 91.82 60.48 86.63 68.14 84.04 73.29 86.65 73.3 86.65"/>
          <g class="cls-9">
            <rect class="cls-4" x="56.95" y="89.09" width="17.35" height=".28" transform="translate(-25.07 25.64) rotate(-18.63)"/>
            <polygon class="cls-4" points="68.21 96.93 60.36 86.71 60.59 86.54 67.94 96.12 68 84.04 68.28 84.04 68.21 96.93"/>
            <polygon class="cls-4" points="68.03 88.48 64.24 85.21 63.24 90.09 62.97 90.03 64.06 84.69 68.21 88.26 68.03 88.48"/>
          </g>
        </g>
        <g>
          <polygon class="cls-13" points="82.87 93.36 88.35 96.59 85.37 102.21 85.37 102.21 82.5 100.63 81.25 96.21 82.87 93.36 82.87 93.36"/>
          <g class="cls-22">
            <rect class="cls-4" x="84.04" y="92.86" width=".16" height="9.85" transform="translate(-23.43 26.57) rotate(-15.79)"/>
            <polygon class="cls-4" points="88.56 96.53 82.54 100.69 82.45 100.56 88.09 96.66 81.24 96.29 81.25 96.13 88.56 96.53"/>
            <polygon class="cls-4" points="83.76 96.4 81.8 98.45 84.54 99.16 84.5 99.31 81.5 98.54 83.65 96.29 83.76 96.4"/>
          </g>
        </g>
        <g>
          <polygon class="cls-13" points="58.95 77.42 64.29 90.2 51.76 96.1 51.76 96.1 48.81 89.6 52.4 80.27 58.95 77.42 58.95 77.42"/>
          <g class="cls-17">
            <rect class="cls-4" x="44.62" y="86.59" width="21.46" height=".35" transform="translate(-45.5 107.26) rotate(-68.95)"/>
            <polygon class="cls-4" points="64.73 90.38 48.8 89.78 48.81 89.43 63.73 89.99 52.29 80.4 52.51 80.13 64.73 90.38"/>
            <polygon class="cls-4" points="56.53 83.88 50.44 84.9 54.29 89.7 54.02 89.92 49.8 84.66 56.47 83.54 56.53 83.88"/>
          </g>
        </g>
        <g>
          <polygon class="cls-13" points="55.38 115.36 69.19 104.38 80.78 117.69 80.77 117.69 73.84 123.56 61.14 122.4 55.39 115.36 55.38 115.36"/>
          <g class="cls-27">
            <rect class="cls-4" x="67.86" y="102.86" width=".44" height="27.33" transform="translate(-54.17 173.68) rotate(-84.76)"/>
            <polygon class="cls-4" points="69.26 103.78 74.05 123.51 73.62 123.61 69.13 105.13 61.34 122.49 60.94 122.31 69.26 103.78"/>
            <polygon class="cls-4" points="64.14 116.09 67.51 123.2 72.05 116.81 72.41 117.07 67.43 124.06 63.74 116.27 64.14 116.09"/>
          </g>
        </g>
        <g>
          <polygon class="cls-13" points="50.04 91.64 65.36 94.88 62.8 110.33 62.8 110.32 54.87 108.9 48.49 99.56 50.05 91.65 50.04 91.64"/>
          <g class="cls-12">
            <rect class="cls-4" x="56.23" y="88.86" width=".39" height="24.25" transform="translate(-47.12 49.42) rotate(-34.33)"/>
            <polygon class="cls-4" points="65.8 94.59 55.02 109.01 54.71 108.78 64.81 95.27 48.54 99.75 48.44 99.37 65.8 94.59"/>
            <polygon class="cls-4" points="54.5 98.04 51.54 104.36 58.47 103.86 58.5 104.25 50.9 104.8 54.14 97.87 54.5 98.04"/>
          </g>
        </g>
        <g>
          <polygon class="cls-13" points="67.49 104.94 74 95.82 83.4 101.92 83.4 101.92 80.19 106.72 72.24 108.22 67.5 104.93 67.49 104.94"/>
          <g class="cls-14">
            <rect class="cls-4" x="66.77" y="103.29" width="17.35" height=".28" transform="translate(-17.93 15.85) rotate(-10.72)"/>
            <polygon class="cls-4" points="73.94 95.45 80.31 106.65 80.06 106.79 74.1 96.29 72.37 108.24 72.1 108.2 73.94 95.45"/>
            <polygon class="cls-4" points="72.96 103.85 76.26 107.6 77.92 102.91 78.18 103 76.36 108.14 72.75 104.03 72.96 103.85"/>
          </g>
        </g>
        <g>
          <polygon class="cls-13" points="72 100.03 67.01 96.07 70.74 90.92 70.74 90.92 73.37 92.87 74 97.43 72 100.02 72 100.03"/>
          <g class="cls-23">
            <rect class="cls-4" x="71.29" y="90.54" width=".16" height="9.85" transform="translate(-12.41 10.68) rotate(-7.88)"/>
            <polygon class="cls-4" points="66.8 96.1 73.33 92.8 73.4 92.95 67.28 96.03 74.01 97.35 73.98 97.5 66.8 96.1"/>
            <polygon class="cls-4" points="71.54 96.89 73.76 95.13 71.15 94.05 71.21 93.91 74.07 95.08 71.64 97.02 71.54 96.89"/>
          </g>
        </g>
        <g>
          <polygon class="cls-13" points="81.3 118.16 77.77 104.77 90.99 100.65 90.99 100.65 93.02 107.49 88.18 116.24 81.3 118.16 81.3 118.16"/>
          <g class="cls-19">
            <rect class="cls-4" x="75.42" y="109.23" width="21.46" height=".35" transform="translate(-51.29 131.82) rotate(-61.05)"/>
            <polygon class="cls-4" points="77.36 104.54 93.05 107.32 92.99 107.66 78.29 105.05 88.3 116.13 88.05 116.36 77.36 104.54"/>
            <polygon class="cls-4" points="84.58 112.1 90.76 111.92 87.61 106.64 87.9 106.46 91.36 112.25 84.59 112.45 84.58 112.1"/>
          </g>
        </g>
        <g>
          <polygon class="cls-13" points="106.07 113.93 117.43 102 129.85 112.82 129.85 112.82 124.19 119.14 112.3 119.69 106.08 113.93 106.07 113.93"/>
          <g class="cls-28">
            <rect class="cls-4" x="105.21" y="113.17" width="25.51" height=".41" transform="translate(-5.15 5.61) rotate(-2.67)"/>
            <polygon class="cls-4" points="117.41 101.44 124.38 119.06 124 119.22 117.47 102.71 112.5 119.75 112.11 119.64 117.41 101.44"/>
            <polygon class="cls-4" points="114.26 113.47 118.29 119.62 121.67 113.13 122.04 113.32 118.33 120.43 113.92 113.7 114.26 113.47"/>
          </g>
        </g>
        <g>
          <polygon class="cls-13" points="92.96 80.98 111.54 82.29 111.06 100.92 111.06 100.91 101.47 100.53 92.42 90.57 92.97 80.99 92.96 80.98"/>
          <g class="cls-2">
            <rect class="cls-4" x="101.78" y="76.52" width=".46" height="28.86" transform="translate(-34.65 92.19) rotate(-42.24)"/>
            <polygon class="cls-4" points="112.02 81.87 101.67 100.64 101.27 100.42 110.96 82.84 92.52 90.78 92.33 90.36 112.02 81.87"/>
            <polygon class="cls-4" points="99.26 87.79 96.8 95.73 104.9 94.01 105 94.46 96.13 96.35 98.81 87.66 99.26 87.79"/>
          </g>
        </g>
        <g>
          <polygon class="cls-13" points="116.12 84.12 121.32 74.19 131.46 78.95 131.46 78.95 128.94 84.14 121.27 86.72 116.12 84.12 116.12 84.12"/>
          <g class="cls-18">
            <rect class="cls-4" x="115.12" y="81.39" width="17.35" height=".28" transform="translate(-19.56 43.82) rotate(-18.63)"/>
            <polygon class="cls-4" points="121.2 73.83 129.05 84.05 128.83 84.22 121.48 74.65 121.41 86.72 121.13 86.72 121.2 73.83"/>
            <polygon class="cls-4" points="121.39 82.29 125.17 85.55 126.17 80.68 126.44 80.73 125.35 86.07 121.21 82.5 121.39 82.29"/>
          </g>
        </g>
        <g>
          <polygon class="cls-13" points="121.88 97.2 116.4 93.97 119.38 88.35 119.38 88.35 122.26 89.93 123.51 94.35 121.88 97.19 121.88 97.2"/>
          <g class="cls-10">
            <rect class="cls-4" x="120.55" y="87.85" width=".16" height="9.85" transform="translate(-20.69 36.32) rotate(-15.79)"/>
            <polygon class="cls-4" points="116.19 94.03 122.21 89.86 122.3 89.99 116.66 93.89 123.51 94.27 123.5 94.43 116.19 94.03"/>
            <polygon class="cls-4" points="120.99 94.16 122.95 92.1 120.22 91.4 120.25 91.25 123.25 92.02 121.11 94.27 120.99 94.16"/>
          </g>
        </g>
        <g>
          <polygon class="cls-13" points="96.41 124.2 92.33 114.44 101.9 109.94 101.89 109.94 104.15 114.9 101.4 122.02 96.41 124.19 96.41 124.2"/>
          <g class="cls-25">
            <rect class="cls-4" x="90.96" y="116.93" width="16.38" height=".26" transform="translate(-45.71 167.56) rotate(-68.95)"/>
            <polygon class="cls-4" points="92 114.31 104.15 114.76 104.14 115.03 92.76 114.6 101.49 121.92 101.32 122.12 92 114.31"/>
            <polygon class="cls-4" points="98.25 119.27 102.9 118.49 99.97 114.82 100.17 114.66 103.39 118.67 98.3 119.53 98.25 119.27"/>
          </g>
        </g>
        <g>
          <polygon class="cls-13" points="86.62 66.8 79.68 89.2 57 83.26 57 83.26 60.22 71.62 75.02 63.4 86.61 66.81 86.62 66.8"/>
          <g class="cls-11">
            <rect class="cls-4" x="53.65" y="74.74" width="36.31" height=".59" transform="translate(-27.41 44.32) rotate(-29.06)"/>
            <polygon class="cls-4" points="80.06 89.9 60.03 71.84 60.42 71.4 79.18 88.32 74.74 63.45 75.31 63.35 80.06 89.9"/>
            <polygon class="cls-4" points="76.47 72.57 67.44 67.28 67.23 77.69 66.65 77.68 66.88 66.27 76.76 72.06 76.47 72.57"/>
          </g>
        </g>
        <g>
          <polygon class="cls-13" points="122.53 55.03 94.93 87.05 61.72 60.9 61.73 60.9 75.43 43.98 105.82 41.05 122.51 55.03 122.53 55.03"/>
          <g class="cls-3">
            <rect class="cls-4" x="59.38" y="57.44" width="65.47" height="1.05" transform="translate(-5.14 9.12) rotate(-5.51)"/>
            <polygon class="cls-4" points="95.05 88.48 74.95 44.2 75.91 43.76 94.74 85.24 105.31 40.93 106.33 41.17 95.05 88.48"/>
            <polygon class="cls-4" points="101.6 57.24 90.49 42.01 82.64 59.07 81.69 58.63 90.28 39.94 102.45 56.62 101.6 57.24"/>
          </g>
        </g>
        <g>
          <polygon class="cls-13" points="128.01 105.38 113.8 102.38 116.17 88.06 116.17 88.06 123.53 89.38 129.45 98.04 128 105.38 128.01 105.38"/>
          <g class="cls-26">
            <rect class="cls-4" x="121.91" y="85.48" width=".36" height="22.48" transform="translate(-33.28 85.71) rotate(-34.33)"/>
            <polygon class="cls-4" points="113.39 102.65 123.39 89.27 123.68 89.49 114.31 102.02 129.4 97.87 129.49 98.22 113.39 102.65"/>
            <polygon class="cls-4" points="123.88 99.45 126.62 93.59 120.19 94.05 120.16 93.69 127.21 93.18 124.2 99.6 123.88 99.45"/>
          </g>
        </g>
        <g>
          <polygon class="cls-13" points="123.04 101.18 112.83 105.79 107.77 95.8 107.77 95.8 112.95 93.26 120.58 95.95 123.03 101.17 123.04 101.18"/>
          <g class="cls-24">
            <rect class="cls-4" x="115.26" y="89.81" width=".28" height="17.35" transform="translate(-15.83 174.61) rotate(-70.59)"/>
            <polygon class="cls-4" points="112.7 106.15 112.81 93.26 113.09 93.26 112.99 105.33 120.47 95.86 120.69 96.04 112.7 106.15"/>
            <polygon class="cls-4" points="117.76 99.37 116.79 94.47 113 97.69 112.82 97.48 116.97 93.95 118.04 99.31 117.76 99.37"/>
          </g>
        </g>
        <g>
          <polygon class="cls-13" points="93.95 86.38 89.06 93.22 82 88.64 82.01 88.64 84.42 85.04 90.38 83.91 93.94 86.38 93.95 86.38"/>
          <g class="cls-21">
            <rect class="cls-4" x="81.46" y="87.4" width="13.02" height=".21" transform="translate(-14.75 17.9) rotate(-10.72)"/>
            <polygon class="cls-4" points="89.11 93.5 84.32 85.09 84.51 84.99 88.98 92.87 90.28 83.89 90.49 83.92 89.11 93.5"/>
            <polygon class="cls-4" points="89.84 87.19 87.36 84.38 86.12 87.9 85.92 87.83 87.28 83.97 90 87.06 89.84 87.19"/>
          </g>
        </g>
        <g>
          <polygon class="cls-13" points="89.31 114.32 94.3 118.27 90.57 123.42 90.57 123.42 87.94 121.47 87.31 116.92 89.31 114.32 89.31 114.32"/>
          <g class="cls-1">
            <rect class="cls-4" x="89.86" y="113.95" width=".16" height="9.85" transform="translate(-15.45 13.45) rotate(-7.88)"/>
            <polygon class="cls-4" points="94.51 118.24 87.98 121.54 87.91 121.4 94.03 118.31 87.3 116.99 87.33 116.84 94.51 118.24"/>
            <polygon class="cls-4" points="89.77 117.45 87.55 119.22 90.16 120.29 90.1 120.44 87.24 119.26 89.67 117.33 89.77 117.45"/>
          </g>
        </g>
        <g>
          <polygon class="cls-13" points="111.75 69.14 115.28 82.54 102.06 86.66 102.06 86.66 100.03 79.82 104.87 71.06 111.75 69.15 111.75 69.14"/>
          <g class="cls-15">
            <rect class="cls-4" x="96.18" y="77.73" width="21.46" height=".35" transform="translate(-13.02 133.73) rotate(-61.05)"/>
            <polygon class="cls-4" points="115.69 82.77 100 79.99 100.06 79.65 114.76 82.26 104.75 71.18 105 70.95 115.69 82.77"/>
            <polygon class="cls-4" points="108.47 75.21 102.29 75.38 105.44 80.67 105.15 80.85 101.69 75.06 108.46 74.86 108.47 75.21"/>
          </g>
        </g>
      </g>
      <g>
        <path class="cls-7" d="M115.1,148.96c0-4.56-3.7-8.26-8.26-8.26s-8.27,3.7-8.27,8.26,3.7,8.27,8.27,8.27,8.26-3.7,8.26-8.27Z"/>
        <path class="cls-7" d="M80.59,148.96c0-4.56-3.7-8.26-8.27-8.26s-8.27,3.7-8.27,8.26,3.7,8.27,8.27,8.27,8.27-3.7,8.27-8.27Z"/>
        <path class="cls-5" d="M108.21,149.17v-12h-15.54l13.04,13.04c1.38,1.38,2.5.92,2.5-1.03Z"/>
        <path class="cls-5" d="M73.74,149.17v-12h-15.54l13.04,13.04c1.38,1.38,2.5.92,2.5-1.03Z"/>
        <path class="cls-4" d="M163.16,42.74c-.28-1.29-1.55-2.11-2.84-1.83l-22.34,4.83c-.96.21-1.69.98-1.85,1.95l-2.55,15.43-89.55,19.92c-.07.01-.12.04-.18.06-.08.02-.16.04-.23.08-.07.03-.14.07-.21.11-.07.04-.14.07-.2.12-.07.04-.13.1-.18.15-.06.05-.12.09-.17.15-.06.06-.1.12-.15.18-.05.06-.1.11-.14.17-.04.07-.08.14-.11.2-.03.07-.07.13-.1.2-.03.07-.05.15-.07.22-.02.07-.05.14-.06.22-.02.08-.02.16-.03.24,0,.08-.02.15-.02.23,0,.08.01.16.02.24,0,.07,0,.13.02.2l7.18,39.07s0,.02,0,.02c.01.06.03.11.05.16.03.09.05.18.08.27.02.05.05.1.07.15.04.08.08.16.13.24.03.05.07.09.1.14.05.07.11.14.17.2.04.04.08.08.13.13.06.06.13.11.19.16.05.04.1.07.16.11.07.04.15.08.22.12.06.03.11.05.17.08.09.03.18.06.27.08.05.01.1.03.15.04.15.03.29.05.45.05h74.28c2.19,0,3.97,1.78,3.97,3.97s-1.78,3.97-3.97,3.97H55.3c-1.32,0-2.39,1.07-2.39,2.39s1.07,2.39,2.39,2.39h70.7c4.82,0,8.74-3.92,8.74-8.74,0-3.91-2.58-7.22-6.12-8.34l2.81-17c.08-.24.12-.49.13-.76l9.02-54.64,20.75-4.49c1.29-.28,2.11-1.55,1.83-2.84ZM92.77,77.1l18.97-4.22-1.87,13.16-18.03,2.85.93-11.79ZM48.87,95.68l-1.56-8.47,15.55-3.46.29,9.67-14.28,2.26ZM51.29,108.87l-1.56-8.48,13.56-2.14.29,9.59-12.29,1.04ZM53.72,122.06l-1.56-8.48,11.56-.98.28,9.45h-10.29ZM84.44,122.06h-15.66l-.3-9.86,16.84-1.42-.89,11.28ZM85.71,105.96l-17.36,1.47-.3-9.94,18.56-2.93-.9,11.4ZM86.99,89.66l-19.08,3.02-.3-9.98,20.29-4.51-.9,11.47ZM104.76,122.06h-15.53l.92-11.69,16.46-1.39-1.86,13.08ZM107.3,104.13l-16.77,1.42.93-11.76,17.71-2.8-1.86,13.14ZM111.5,108.57l14.79-1.25-2.44,14.74h-14.26l1.91-13.49ZM127.09,102.46l-14.9,1.26,1.92-13.51,15.41-2.43-2.43,14.68ZM130.33,82.81l-15.53,2.45,1.91-13.49,16.02-3.57-2.41,14.61Z"/>
        <path class="cls-8" d="M167.68,41.2c.49,1.92-.67,3.87-2.59,4.37l-17.25,4.41c-1.92.49-3.87-.67-4.37-2.59h0c-.49-1.92.67-3.88,2.59-4.37l17.25-4.41c1.92-.49,3.87.67,4.36,2.59h0Z"/>
      </g>
    </g>
  </g>
</svg>